<svg width="268" height="268" viewBox="0 0 268 268" fill="none" xmlns="http://www.w3.org/2000/svg">
<g clip-path="url(#clip0_804_2625)">
<rect width="268" height="268" rx="10" fill="white"/>
<path fill-rule="evenodd" clip-rule="evenodd" d="M268 149.199C263.163 149.708 257.308 151.107 252.534 152.125C237.96 155.05 222.94 158.866 208.875 162.936C193.092 167.579 176.736 173.175 161.462 179.281C159.552 180.044 156.943 180.934 155.097 181.825C156.594 182.764 158.145 183.614 159.743 184.369C166.489 187.803 175.972 193.272 182.464 197.088C185.429 198.724 188.297 200.529 191.055 202.494L190.737 203.003C189.082 202.558 187.11 201.731 185.391 201.095L169.29 195.562C147.142 188.184 124.624 181.964 101.828 176.928C77.036 171.429 51.9372 167.415 26.666 164.908C18.2652 164.017 8.59145 162.936 0.126953 162.745V267.936H268V149.199Z" fill="#0E116A"/>
<path fill-rule="evenodd" clip-rule="evenodd" d="M108.956 149.073C108.956 147.864 96.2277 112.695 95.7822 111.868C91.2635 99.4665 86.8085 87.065 82.4172 74.5363C78.0258 62.0076 73.5072 49.8605 69.1158 37.2682C66.8883 30.9084 64.7245 24.8666 62.7515 18.6341C60.7786 12.4015 57.9783 6.35975 55.7508 0H-0.000289522C-0.000289522 15.7722 -0.000289522 32.3075 -0.000289522 48.2705C-0.000289522 50.878 -0.573075 50.0513 2.99092 53.2311L41.1766 87.7646C49.6411 95.2055 58.1056 103.219 66.6338 110.787L108.956 148.945V149.073Z" fill="#D7AC14"/>
<path fill-rule="evenodd" clip-rule="evenodd" d="M159.107 149.073C160.283 148.157 161.408 147.181 162.48 146.147L172.663 136.926C179.028 131.393 186.537 124.206 192.965 118.482L206.585 106.081C212.949 100.23 221.032 93.3612 227.014 87.5102L233.76 81.1505C235.861 79.1789 238.279 77.0802 240.57 74.7907C245.343 70.4661 249.417 66.841 254.19 62.4528L264.373 53.2947C265.582 52.2136 266.727 51.196 267.809 50.1149V0H212.44C208.622 11.5112 203.339 25.439 199.139 37.141C194.938 48.8429 190.165 62.0076 185.837 74.4091C181.51 86.8106 176.927 99.2122 172.472 111.741L160.826 144.303C160.182 145.853 159.65 147.447 159.235 149.073H159.107Z" fill="#D7AC14"/>
<path fill-rule="evenodd" clip-rule="evenodd" d="M125.312 142.204L132.313 0H58.042C58.6369 1.58298 59.3167 3.13276 60.0786 4.64262L108.32 106.399C111.184 112.44 114.111 118.419 116.721 124.142L124.994 141.568C124.994 141.886 124.994 141.568 125.312 141.95V142.204Z" fill="#D7AC14"/>
<path fill-rule="evenodd" clip-rule="evenodd" d="M142.815 142.204C143.403 141.593 143.839 140.852 144.088 140.042L159.807 106.78C162.544 100.929 165.535 94.8239 168.208 89.0366L176.546 71.2928C179.473 65.4419 182.019 59.5273 184.946 53.5491C190.547 42.038 196.02 29.8908 201.684 18.0617C203.212 14.9454 204.421 12.2743 205.885 9.15805L210.022 0H135.941L142.815 142.204Z" fill="#D7AC14"/>
<path fill-rule="evenodd" clip-rule="evenodd" d="M0 140.676C8.019 141.948 16.1016 142.393 25.4571 143.919C45.121 147.02 64.5865 151.267 83.754 156.639L94.8915 159.819L71.2163 133.553C69.0525 131.327 67.2705 129.101 65.2976 127.193C59.6334 121.215 53.0781 113.52 47.4776 107.605C43.5954 103.471 39.7131 98.7652 35.7673 94.8858L29.8485 88.526C27.7483 86.1729 25.9663 84.1378 23.9297 82.1663C21.8931 80.1948 1.01829 55.7733 0 55.3281V140.676Z" fill="#D7AC14"/>
<path fill-rule="evenodd" clip-rule="evenodd" d="M173.427 159.632C174.19 159.632 182.782 157.024 184.31 156.579C211.654 148.897 239.613 143.599 267.873 140.743V55.459C266.918 55.9042 256.481 67.7969 255.908 68.1785C251.962 72.7575 247.953 76.8913 244.07 81.2796C242.034 83.6327 240.124 85.477 238.279 87.6393C237.77 88.2117 237.261 88.6569 236.815 89.2293C231.915 95.0166 225.359 101.631 220.522 107.227C213.204 116.067 204.803 124.78 197.293 133.557L173.745 159.632H173.427Z" fill="#D7AC14"/>
<path fill-rule="evenodd" clip-rule="evenodd" d="M173.618 232.32C173.618 231.048 177.945 222.589 178.773 220.682C180.769 224.459 182.554 228.344 184.119 232.32H173.618ZM134.668 220.745C135.114 221.254 139.823 231.366 140.014 232.32H129.322L134.668 220.809V220.745ZM63.6427 214.385C63.6427 216.357 65.6156 215.085 65.7429 217.82C65.7429 219.219 62.3699 240.142 61.8607 242.623C60.4606 250.254 58.4876 247.774 58.3604 250.445H70.007C70.007 248.346 69.2433 249.809 68.0977 248.092C66.9521 246.375 68.5432 239.506 68.9251 236.962L71.1526 222.589C71.1526 221.89 71.1526 222.589 71.1526 222.144L80.7626 245.612C81.7823 248.27 83.6647 250.509 86.1086 251.972L98.4553 222.717C98.9008 223.543 101.192 241.796 101.701 245.039C101.701 247.392 101.701 248.919 100.174 249.682C98.6463 250.445 99.3463 249.682 99.3463 251.081H125.376C125.376 248.855 123.658 250.382 123.149 248.537C123.13 247.176 123.482 245.835 124.167 244.658C125.063 242.141 126.104 239.677 127.286 237.28H142.369C144.323 240.658 145.842 244.269 146.888 248.028C146.545 248.383 146.133 248.665 145.678 248.855C144.66 249.3 144.851 248.855 144.787 250.254H169.481V249.3C167.571 247.901 165.98 249.3 168.462 243.577C169.294 241.393 170.272 239.269 171.39 237.217H186.537C187.619 239.188 188.701 241.859 189.719 244.022C190.737 246.184 191.819 248.028 190.101 248.919C188.383 249.809 189.019 248.919 189.019 250.382H202.957C202.957 248.664 202.957 249.618 201.302 248.474C199.278 246.814 197.775 244.605 196.974 242.114L183.291 214.258C179.732 213.999 176.159 213.999 172.599 214.258C172.599 216.102 173.299 214.958 174.19 215.975C175.081 216.993 172.663 221.445 171.899 223.098L163.307 241.096C161.844 244.149 160.443 247.456 157.707 248.792C154.588 246.947 154.016 244.658 152.17 241.033C150.324 237.408 149.306 235.182 147.842 232.065L139.187 214.131H128.431V215.085C130.595 216.738 131.741 214.703 127.922 222.78L120.03 239.379C118.121 243.259 117.23 246.502 113.666 248.728C111.502 250.254 109.911 247.202 109.529 244.976L106.156 223.861C105.774 221.508 104.565 217.502 105.838 215.975C107.111 214.449 107.302 215.975 107.111 214.131H95.4641C95.1334 216.355 94.423 218.506 93.3639 220.491C92.4729 222.526 91.5819 224.625 90.7546 226.85C89.9272 229.076 85.9813 238.743 85.4722 239.252C84.5812 237.916 77.7714 220.872 76.3076 217.438L75.0348 214.131C71.2216 213.844 67.3922 213.844 63.5791 214.131L63.6427 214.385Z" fill="#FFFFFC"/>
<path fill-rule="evenodd" clip-rule="evenodd" d="M214.985 218.964C217.563 218.373 220.256 218.528 222.75 219.409C223.837 219.842 224.745 220.633 225.323 221.65C225.902 222.667 226.116 223.85 225.932 225.006C225.232 229.712 218.359 230.73 214.731 231.366C214.731 229.776 214.731 220.236 214.731 219.028L214.985 218.964ZM204.548 250.763H217.658C217.658 248.219 216.386 250.763 215.24 247.583C214.761 246.019 214.631 244.369 214.858 242.749C214.858 239.188 214.858 235.372 214.858 231.811C215.749 232.637 218.868 236.962 219.95 238.17L226.95 245.739C228.28 247.333 229.873 248.688 231.66 249.745C235.225 250.702 238.938 250.983 242.606 250.572C242.606 249.173 243.116 249.936 240.57 248.41L237.897 246.629C234.469 244.099 231.332 241.198 228.541 237.98C227.034 236.491 225.61 234.92 224.277 233.273C227.685 232.383 230.65 230.28 232.614 227.359C233.587 225.693 233.898 223.722 233.485 221.837C233.073 219.953 231.967 218.292 230.387 217.183C226.981 215.015 222.954 214.031 218.931 214.385C214.349 214.385 209.003 214.385 204.548 214.385C204.548 216.357 205.821 215.275 206.712 217.183C207.39 222.241 207.582 227.352 207.285 232.447C207.538 237.54 207.368 242.645 206.776 247.71C205.757 250.127 204.484 248.282 204.484 250.572L204.548 250.763Z" fill="#FCFEFE"/>
<path fill-rule="evenodd" clip-rule="evenodd" d="M25.4572 214.387C25.4572 215.722 25.4572 215.15 26.5392 215.786C27.0875 216.133 27.511 216.645 27.7484 217.249C28.3717 222.247 28.5421 227.292 28.2575 232.321C28.4984 237.328 28.3495 242.346 27.812 247.33C26.7301 250.192 25.4572 248.094 25.3936 250.319H25.4572C26.921 250.319 24.3117 250.319 25.4572 250.319H39.4587C43.85 250.319 49.5142 250.319 53.7783 250.319L57.2787 242.497C54.7966 242.497 53.651 244.914 47.7959 245.55C43.7544 245.685 39.7087 245.472 35.7037 244.914V233.657C38.077 233.497 40.4584 233.497 42.8317 233.657C48.8142 233.657 46.1412 235.374 48.4323 235.183V228.824C47.4159 228.737 46.3939 228.737 45.3774 228.824H42.1317C40.1587 228.824 37.5494 228.824 35.7674 228.824V219.475C41.2053 218.577 46.7762 218.925 52.0599 220.492C52.8873 221.065 52.5691 221.319 53.9692 221.319V214.005H39.7769C35.0072 213.746 30.2269 213.746 25.4572 214.005V214.387Z" fill="#FFFFFC"/>
</g>
<defs>
<clipPath id="clip0_804_2625">
<rect width="268" height="268" rx="10" fill="white"/>
</clipPath>
</defs>
</svg>
