<svg width="285" height="34" viewBox="0 0 285 34" fill="none" xmlns="http://www.w3.org/2000/svg">
<g clip-path="url(#clip0_879_8679)">
<path d="M69.6188 6.78906C69.3068 6.78906 69.0448 6.90135 68.8203 7.12593C68.5957 7.3505 68.4834 7.62499 68.4834 7.9369C68.4834 8.24881 68.5957 8.51081 68.8203 8.73539C69.0448 8.95997 69.3068 9.07225 69.6188 9.07225H82.0578C82.3697 9.07225 82.6317 8.95997 82.8563 8.73539C83.0809 8.51081 83.1931 8.24881 83.1931 7.9369C83.1931 7.61251 83.0809 7.33803 82.8563 7.12593C82.6317 6.90135 82.3697 6.78906 82.0578 6.78906H69.6188Z" fill="#E6214C"/>
<path d="M21.7964 1.92365C22.0209 1.69907 22.1332 1.43707 22.1332 1.12515C22.1332 0.813243 22.0209 0.551236 21.7964 0.314183C21.5718 0.0896068 21.3098 -0.0351562 20.9979 -0.0351562H4.6662C3.68056 -0.0351562 2.89454 0.0521757 2.28319 0.239323C1.67185 0.42647 1.21022 0.688477 0.873352 1.05029C0.536488 1.39964 0.311911 1.83631 0.187147 2.36032C0.0623823 2.88433 0 3.48321 0 4.15694V11.6054C0 12.329 0.0499058 12.9653 0.162194 13.5143C0.274482 14.0632 0.486582 14.5249 0.823446 14.9116C1.14783 15.2859 1.62194 15.5729 2.23329 15.76C2.84463 15.9472 3.6556 16.047 4.6662 16.047H20.9979C21.3098 16.047 21.5718 15.9347 21.7964 15.7101C22.0209 15.4856 22.1332 15.2236 22.1332 14.9116C22.1332 14.5997 22.0209 14.3377 21.7964 14.1132C21.5718 13.8886 21.3098 13.7763 20.9979 13.7763H4.52895C3.96751 13.7763 3.51836 13.7513 3.21893 13.689C2.90701 13.6266 2.68244 13.5143 2.5452 13.3521C2.40796 13.1899 2.32062 12.9778 2.29567 12.6908C2.27072 12.4164 2.25824 12.0545 2.25824 11.6054V4.19436C2.25824 3.79512 2.27072 3.47073 2.30814 3.20872C2.3331 2.94672 2.43291 2.7471 2.58263 2.59738C2.73234 2.44766 2.95692 2.34785 3.25636 2.28547C3.55579 2.22308 3.97999 2.19813 4.52895 2.19813L20.9979 2.22308C21.3098 2.22308 21.5718 2.1108 21.7964 1.88622V1.92365Z" fill="#E6214C"/>
<path d="M86.6489 1.92365C86.8735 1.69907 86.9858 1.43707 86.9858 1.12515C86.9858 0.813243 86.8735 0.551236 86.6489 0.314183C86.4243 0.0896068 86.1623 -0.0351562 85.8504 -0.0351562H69.5187C68.5331 -0.0351562 67.7471 0.0521757 67.1357 0.239323C66.5244 0.42647 66.0628 0.688477 65.7259 1.05029C65.389 1.39964 65.1645 1.83631 65.0397 2.36032C64.9149 2.88433 64.8525 3.48321 64.8525 4.15694V11.6054C64.8525 12.329 64.9024 12.9653 65.0147 13.5143C65.127 14.0632 65.3391 14.5249 65.676 14.9116C66.0004 15.2859 66.4745 15.5729 67.0858 15.76C67.6972 15.9472 68.5081 16.047 69.5187 16.047H85.8504C86.1623 16.047 86.4243 15.9347 86.6489 15.7101C86.8735 15.4856 86.9858 15.2236 86.9858 14.9116C86.9858 14.5997 86.8735 14.3377 86.6489 14.1132C86.4243 13.8886 86.1623 13.7763 85.8504 13.7763H69.3815C68.8201 13.7763 68.3709 13.7513 68.0715 13.689C67.7596 13.6266 67.535 13.5143 67.3977 13.3521C67.248 13.1899 67.1732 12.9778 67.1482 12.6908C67.1233 12.4164 67.1108 12.0545 67.1108 11.6054V4.19436C67.1108 3.79512 67.1233 3.47073 67.1607 3.20872C67.1981 2.94672 67.2854 2.7471 67.4352 2.59738C67.5849 2.44766 67.8095 2.34785 68.1089 2.28547C68.4083 2.22308 68.8325 2.19813 69.3815 2.19813L85.8504 2.22308C86.1623 2.22308 86.4243 2.1108 86.6489 1.88622V1.92365Z" fill="#E6214C"/>
<path d="M4.76622 6.78906C4.45431 6.78906 4.1923 6.90135 3.96772 7.12593C3.74315 7.3505 3.63086 7.62499 3.63086 7.9369C3.63086 8.24881 3.74315 8.51081 3.96772 8.73539C4.1923 8.95997 4.45431 9.07225 4.76622 9.07225H17.2052C17.5172 9.07225 17.7792 8.95997 18.0037 8.73539C18.2283 8.51081 18.3406 8.24881 18.3406 7.9369C18.3406 7.61251 18.2283 7.33803 18.0037 7.12593C17.7792 6.90135 17.5172 6.78906 17.2052 6.78906H4.76622Z" fill="#E6214C"/>
<path d="M53.2122 -0.0214844C52.8879 -0.0214844 52.6134 0.0908043 52.4013 0.315381C52.1892 0.539957 52.0644 0.801962 52.0644 1.11387V4.84434C52.0644 5.58045 51.8897 6.31656 51.5529 7.05267C51.216 7.78878 50.7793 8.48746 50.2553 9.14872C49.7313 9.80997 49.1449 10.4213 48.4961 10.9952C47.8474 11.5691 47.2235 12.0682 46.6122 12.4799C46.0008 12.8917 45.4394 13.216 44.9403 13.4531C44.4413 13.6901 44.1044 13.8149 43.8798 13.8773C43.6303 13.9397 43.1313 13.9397 42.7694 13.8399C42.495 13.765 42.2704 13.6901 41.7713 13.4531C41.2847 13.216 40.9229 12.9041 40.2991 12.4924C39.6753 12.0807 39.0515 11.5816 38.4152 11.0077C37.7664 10.4338 37.18 9.80997 36.656 9.16119C36.132 8.49994 35.6953 7.80126 35.3584 7.06514C35.0216 6.32903 34.8469 5.59292 34.8469 4.85681V1.12635C34.8469 0.814441 34.7346 0.552436 34.51 0.32786C34.2854 0.103283 34.0234 -0.00900525 33.7115 -0.00900525C33.3996 -0.00900525 33.1376 0.103283 32.913 0.32786C32.6885 0.552436 32.5762 0.814441 32.5762 1.12635V4.90672C32.5886 5.58045 32.7883 6.94038 33.175 7.71392C33.5618 8.48746 34.0484 9.261 34.6473 10.0345C35.2461 10.8081 35.9074 11.5567 36.631 12.2803C37.3547 13.0039 38.0783 13.6402 38.8019 14.1892C39.5256 14.7382 40.1868 15.1873 40.7982 15.5367C41.4095 15.886 42.3078 16.1605 42.6821 16.2229C43.3184 16.3227 43.6677 16.3227 44.2666 16.2353C44.616 16.1854 45.3895 15.911 46.0008 15.5866C46.6122 15.2622 47.2734 14.813 47.9846 14.2516C48.6958 13.6901 49.4319 13.0538 50.168 12.3302C50.9166 11.6066 51.5903 10.858 52.1892 10.0844C52.8005 9.31091 53.2871 8.52489 53.6863 7.73887C54.0856 6.95286 54.2852 5.58045 54.2977 4.90672V1.12635C54.2977 0.814441 54.1854 0.552436 53.9608 0.32786C53.7362 0.103283 53.4742 -0.00900525 53.1623 -0.00900525L53.2122 -0.0214844Z" fill="#E6214C"/>
<path d="M207.421 4.88086C207.11 4.88086 206.848 4.99315 206.623 5.21772C206.398 5.4423 206.286 5.70431 206.286 6.01622V14.9369C206.286 15.2488 206.398 15.5108 206.623 15.7354C206.848 15.96 207.11 16.0723 207.421 16.0723C207.746 16.0723 208.02 15.96 208.232 15.7354C208.445 15.5108 208.569 15.2488 208.569 14.9369V6.01622C208.569 5.70431 208.457 5.4423 208.232 5.21772C208.008 4.99315 207.733 4.88086 207.421 4.88086Z" fill="#E6214C"/>
<path d="M218.812 1.48817C218.326 0.914249 217.64 0.515006 216.729 0.302906C215.818 0.0908064 214.633 -0.0214844 213.16 -0.0214844H201.358C199.91 -0.00900792 198.763 0.115756 197.902 0.352808C197.041 0.589861 196.38 1.01406 195.918 1.61293C195.456 2.22428 195.157 3.04773 195.02 4.08327C194.882 5.11882 194.808 6.46627 194.808 8.08821V14.9253C194.808 15.2372 194.92 15.4992 195.144 15.7238C195.369 15.9484 195.631 16.0607 195.943 16.0607C196.255 16.0607 196.517 15.9484 196.754 15.7238C196.979 15.4992 197.103 15.2372 197.103 14.9253V8.08821C197.103 6.69085 197.153 5.6054 197.253 4.8069C197.353 4.02089 197.59 3.43449 197.977 3.04772C198.363 2.66095 198.937 2.43638 199.698 2.34904C200.459 2.26171 201.52 2.22428 202.867 2.22428H211.913C213.248 2.22428 214.296 2.26171 215.082 2.33657C215.855 2.41142 216.442 2.64848 216.829 3.02277C217.215 3.40954 217.465 3.98346 217.577 4.76948C217.689 5.55549 217.739 6.65342 217.739 8.07574V14.9128C217.739 15.2247 217.852 15.4868 218.089 15.7113C218.313 15.9359 218.588 16.0482 218.9 16.0482C219.212 16.0482 219.474 15.9359 219.698 15.7113C219.923 15.4868 220.035 15.2247 220.035 14.9128V7.87612C220.035 6.25418 219.96 4.91919 219.798 3.88365C219.636 2.8481 219.311 2.04961 218.837 1.46322L218.812 1.48817Z" fill="#E6214C"/>
<path d="M252.137 1.92365C252.361 1.69907 252.474 1.43707 252.474 1.12515C252.474 0.813243 252.361 0.551236 252.137 0.314183C251.912 0.0896068 251.65 -0.0351562 251.338 -0.0351562H235.007C234.021 -0.0351562 233.235 0.0521757 232.624 0.239323C232.012 0.42647 231.551 0.688477 231.214 1.05029C230.877 1.41211 230.652 1.83631 230.527 2.36032C230.403 2.88433 230.34 3.48321 230.34 4.15694V11.6054C230.34 12.329 230.39 12.9653 230.503 13.5143C230.615 14.0632 230.827 14.5249 231.164 14.9116C231.488 15.2859 231.962 15.5729 232.574 15.76C233.185 15.9472 233.996 16.047 235.007 16.047H251.338C251.65 16.047 251.912 15.9347 252.137 15.7101C252.361 15.4856 252.474 15.2236 252.474 14.9116C252.474 14.5997 252.361 14.3377 252.137 14.1132C251.912 13.8886 251.65 13.7763 251.338 13.7763H234.869C234.308 13.7763 233.859 13.7513 233.559 13.689C233.247 13.6266 233.023 13.5143 232.886 13.3521C232.748 13.1899 232.661 12.9778 232.636 12.6908C232.611 12.4164 232.599 12.0545 232.599 11.6054V4.19436C232.599 3.79512 232.611 3.47073 232.648 3.20872C232.673 2.94672 232.773 2.7471 232.923 2.59738C233.073 2.44766 233.297 2.34785 233.597 2.28547C233.896 2.22308 234.32 2.19813 234.869 2.19813L251.338 2.22308C251.65 2.22308 251.912 2.1108 252.137 1.88622V1.92365Z" fill="#E6214C"/>
<path d="M235.119 6.78906C234.807 6.78906 234.545 6.90135 234.32 7.12593C234.096 7.3505 233.983 7.62499 233.983 7.9369C233.983 8.24881 234.096 8.51081 234.32 8.73539C234.545 8.95997 234.807 9.07225 235.119 9.07225H247.558C247.87 9.07225 248.132 8.95997 248.356 8.73539C248.581 8.51081 248.693 8.24881 248.693 7.9369C248.693 7.61251 248.581 7.33803 248.356 7.12593C248.132 6.90135 247.87 6.78906 247.558 6.78906H235.119Z" fill="#E6214C"/>
<path d="M282.954 5.68026C283.178 5.90483 283.44 6.01712 283.752 6.01712C284.064 6.01712 284.326 5.90483 284.551 5.68026C284.775 5.45568 284.888 5.1812 284.888 4.86929V3.92108C284.888 3.84622 284.888 3.79632 284.888 3.75889C284.888 3.73393 284.888 3.70898 284.888 3.68403C284.863 3.12258 284.775 2.61105 284.663 2.17438C284.538 1.7377 284.339 1.3634 284.052 1.05149C283.765 0.73958 283.378 0.490051 282.891 0.315381C282.405 0.14071 281.768 0.0284215 281.007 -0.0214844H267.757C266.834 -0.0214844 266.086 0.0533774 265.499 0.215571C264.913 0.377765 264.451 0.614816 264.102 0.939204C263.752 1.26359 263.515 1.66284 263.378 2.13694C263.241 2.61105 263.166 3.16001 263.154 3.77136V4.69462C263.154 5.41825 263.203 6.05455 263.316 6.60352C263.428 7.15248 263.64 7.61411 263.965 8.00088C264.289 8.37517 264.751 8.66213 265.362 8.86175C265.973 9.06138 266.772 9.16119 267.77 9.16119H280.396C280.945 9.16119 281.369 9.18614 281.669 9.23605C281.968 9.28596 282.193 9.39824 282.342 9.54796C282.492 9.69768 282.592 9.90978 282.617 10.1593C282.642 10.4088 282.667 10.7332 282.667 11.1325V11.6565C282.667 12.0682 282.654 12.4175 282.617 12.692C282.592 12.9665 282.505 13.1911 282.367 13.3533C282.23 13.5155 282.018 13.6278 281.719 13.7026C281.432 13.7775 281.02 13.8024 280.496 13.8024H267.732C267.171 13.8024 266.722 13.765 266.41 13.7026C266.098 13.6278 265.861 13.5155 265.724 13.3533C265.574 13.1911 265.487 12.979 265.462 12.692C265.437 12.4175 265.412 12.0682 265.412 11.6565V11.1449C265.412 10.833 265.3 10.571 265.075 10.3465C264.85 10.1219 264.588 10.0096 264.276 10.0096C263.965 10.0096 263.703 10.1219 263.478 10.3465C263.253 10.571 263.141 10.833 263.141 11.1449V12.3427C263.166 12.9416 263.253 13.478 263.391 13.9397C263.528 14.4013 263.765 14.8005 264.114 15.1C264.464 15.4119 264.925 15.6365 265.512 15.7987C266.098 15.9609 266.834 16.0357 267.745 16.0357H280.995C281.781 15.9858 282.417 15.8735 282.904 15.6864C283.39 15.4992 283.79 15.2497 284.077 14.9253C284.364 14.6009 284.576 14.2142 284.688 13.765C284.8 13.3158 284.875 12.7918 284.913 12.2179V11.0451C284.913 10.3714 284.85 9.77254 284.725 9.261C284.601 8.74947 284.376 8.31279 284.052 7.96345C283.727 7.61411 283.253 7.33963 282.642 7.15248C282.03 6.96533 281.232 6.878 280.246 6.878H267.708C267.146 6.878 266.697 6.85304 266.385 6.79066C266.073 6.72828 265.836 6.61599 265.699 6.44132C265.549 6.26665 265.474 6.04207 265.449 5.76759C265.424 5.48063 265.412 5.11882 265.412 4.66967V4.34528C265.412 3.92108 265.424 3.55926 265.462 3.28478C265.487 3.0103 265.586 2.78572 265.724 2.62352C265.873 2.46133 266.098 2.34905 266.41 2.28666C266.722 2.22428 267.171 2.19933 267.732 2.19933H280.496C281.02 2.19933 281.419 2.23676 281.719 2.29914C282.006 2.374 282.23 2.48628 282.367 2.64848C282.505 2.81067 282.592 3.02277 282.617 3.30973C282.642 3.58421 282.667 3.93355 282.667 4.34528V4.83186C282.667 5.15625 282.779 5.43073 283.004 5.64283L282.954 5.68026Z" fill="#E6214C"/>
<path d="M182.269 1.45074C181.62 0.889297 180.871 0.502527 180.01 0.315381C179.149 0.128234 178.239 0.015945 177.278 -0.0214844H170.678C169.605 -0.0214844 168.582 0.0408977 167.609 0.178139C166.636 0.31538 165.775 0.639767 165.039 1.17625C164.302 1.71274 163.716 2.52371 163.279 3.60916C162.843 4.69462 162.618 6.20427 162.618 8.11317C162.618 10.0221 162.843 11.5192 163.279 12.5922C163.716 13.6652 164.302 14.4512 165.039 14.9627C165.775 15.4743 166.636 15.7862 167.609 15.8985C168.582 16.0108 169.605 16.0607 170.678 16.0607H176.267C176.991 16.0607 177.69 16.0357 178.376 15.9983C179.062 15.9609 179.698 15.861 180.297 15.6864C180.896 15.5117 181.445 15.2622 181.944 14.9253C182.443 14.5884 182.867 14.1268 183.217 13.5404C183.566 12.954 183.841 12.2179 184.04 11.3321C184.24 10.4463 184.34 9.37329 184.34 8.11317C184.34 6.35399 184.153 4.94415 183.791 3.88365C183.429 2.82315 182.917 2.01218 182.269 1.45074ZM181.77 11.0077C181.557 11.7688 181.233 12.3552 180.771 12.7669C180.31 13.1786 179.711 13.4531 178.975 13.5903C178.239 13.7276 177.328 13.8024 176.255 13.8024H170.665C169.605 13.8024 168.707 13.7276 167.971 13.5903C167.234 13.4531 166.636 13.1786 166.174 12.7669C165.712 12.3552 165.375 11.7688 165.176 11.0077C164.964 10.2466 164.864 9.24852 164.864 8.00088C164.864 6.75323 164.964 5.75512 165.176 4.99405C165.388 4.23299 165.712 3.64659 166.174 3.24735C166.636 2.83562 167.234 2.57362 167.971 2.43638C168.707 2.29914 169.605 2.22428 170.665 2.22428H176.255C177.328 2.22428 178.239 2.29914 178.975 2.43638C179.711 2.57362 180.31 2.8481 180.771 3.24735C181.233 3.65907 181.57 4.23299 181.77 4.99405C181.982 5.75512 182.081 6.75323 182.081 8.00088C182.081 9.24852 181.982 10.2466 181.77 11.0077Z" fill="#E6214C"/>
<path d="M151.015 -0.0214844C150.703 -0.0214844 150.441 0.0908043 150.216 0.315381C149.992 0.539957 149.879 0.801962 149.879 1.11387V4.70709C149.879 5.15625 149.879 5.51806 149.842 5.80502C149.817 6.09198 149.73 6.31655 149.592 6.47875C149.455 6.64094 149.218 6.76571 148.919 6.82809C148.607 6.89047 148.17 6.91543 147.609 6.91543H134.908C134.359 6.91543 133.922 6.878 133.623 6.81561C133.311 6.74075 133.099 6.62847 132.961 6.46627C132.824 6.30408 132.737 6.0795 132.712 5.80502C132.687 5.51806 132.662 5.16872 132.662 4.73205V1.12635C132.662 0.814441 132.55 0.552436 132.313 0.32786C132.088 0.103283 131.813 -0.00900525 131.502 -0.00900525C131.19 -0.00900525 130.928 0.103283 130.703 0.32786C130.479 0.552436 130.366 0.814441 130.366 1.12635V4.83186C130.379 5.54301 130.366 10.6334 130.366 11.3695V14.9627C130.366 15.2747 130.479 15.5367 130.703 15.7612C130.928 15.9858 131.19 16.0981 131.502 16.0981C131.813 16.0981 132.075 15.9858 132.313 15.7612C132.537 15.5367 132.662 15.2747 132.662 14.9627V11.1699C132.662 10.7831 132.674 10.4712 132.712 10.2092C132.737 9.95968 132.824 9.76006 132.949 9.61034C133.074 9.46062 133.273 9.36081 133.548 9.28595C133.822 9.21109 134.184 9.18614 134.658 9.18614H147.609C148.17 9.18614 148.619 9.21109 148.919 9.27348C149.231 9.33586 149.455 9.44815 149.592 9.61034C149.742 9.77254 149.817 9.99711 149.842 10.2716C149.867 10.5586 149.879 10.9204 149.879 11.3695V14.9627C149.879 15.2747 149.992 15.5367 150.216 15.7612C150.441 15.9858 150.703 16.0981 151.015 16.0981C151.327 16.0981 151.589 15.9858 151.813 15.7612C152.038 15.5367 152.15 15.2747 152.15 14.9627V1.13883C152.15 0.826915 152.038 0.56491 151.813 0.340334C151.589 0.115758 151.327 0.00346911 151.015 0.00346911V-0.0214844Z" fill="#E6214C"/>
<path d="M117.017 8.86175C117.628 8.66213 118.09 8.37517 118.414 8.00088C118.738 7.62659 118.951 7.16496 119.063 6.60352C119.175 6.05455 119.225 5.41825 119.225 4.69462V3.77136C119.2 3.16001 119.113 2.61105 118.988 2.13694C118.863 1.66284 118.626 1.26359 118.277 0.939204C117.927 0.614816 117.466 0.377765 116.879 0.215571C116.293 0.0533774 115.532 -0.0214844 114.609 -0.0214844H101.409C100.598 0.0284215 99.9364 0.153187 99.4249 0.340334C98.9134 0.527481 98.5141 0.814439 98.2272 1.16378C97.9402 1.51312 97.7531 1.93732 97.6408 2.43638C97.5285 2.93544 97.4661 3.50935 97.4536 4.14565V4.79443C97.4661 5.50559 97.4536 10.596 97.4536 11.3321V14.9253C97.4536 15.2372 97.5659 15.4992 97.803 15.7238C98.04 15.9484 98.302 16.0607 98.6139 16.0607C98.9258 16.0607 99.1878 15.9484 99.4124 15.7238C99.637 15.4992 99.7493 15.2372 99.7493 14.9253V11.1699C99.7493 10.7831 99.7618 10.4587 99.7992 10.2092C99.8241 9.94721 99.9115 9.74758 100.036 9.58539C100.161 9.43567 100.361 9.32338 100.635 9.24852C100.91 9.17367 101.271 9.14872 101.746 9.14872H108.408C112.949 9.87235 115.02 12.0433 117.403 16.0482C117.578 16.3476 117.903 16.5098 118.227 16.5098C118.389 16.5098 118.564 16.4599 118.713 16.3726C119.163 16.0981 119.312 15.5117 119.05 15.0626C117.665 12.7295 116.218 10.6334 113.91 9.14872H114.659C115.657 9.14872 116.455 9.0489 117.067 8.84928L117.017 8.86175ZM101.958 6.90295C101.409 6.90295 100.972 6.86552 100.673 6.80314C100.361 6.72828 100.149 6.61599 100.011 6.4538C99.874 6.29161 99.7867 6.06703 99.7618 5.79255C99.7368 5.50559 99.7118 5.15624 99.7118 4.71957V4.3328C99.7118 3.93356 99.7243 3.59669 99.7618 3.33469C99.7867 3.0602 99.874 2.8481 100.011 2.68591C100.149 2.52372 100.361 2.41142 100.66 2.33657C100.959 2.26171 101.346 2.23676 101.858 2.23676H114.646C115.208 2.23676 115.657 2.26171 115.956 2.32409C116.268 2.38647 116.493 2.49876 116.63 2.66096C116.78 2.82315 116.867 3.03525 116.892 3.32221C116.917 3.59669 116.942 3.94603 116.942 4.38271V4.70709C116.942 5.15625 116.942 5.51807 116.904 5.80502C116.879 6.09198 116.792 6.31656 116.655 6.47875C116.505 6.65342 116.281 6.76571 115.981 6.82809C115.669 6.89048 115.233 6.91543 114.671 6.91543H101.97L101.958 6.90295Z" fill="#E6214C"/>
<path d="M4.246 31H2.728L0.055 23.3H1.441L3.487 29.471L5.544 23.3H6.919L4.246 31ZM9.06168 31V23.3H10.3267V31H9.06168ZM14.4504 23.3V29.79H17.5854V31H13.1854V23.3H14.4504ZM21.1093 23.3V29.79H24.2443V31H19.8443V23.3H21.1093ZM33.098 31H31.734L31.195 29.449H27.917L27.378 31H26.003L28.797 23.3H30.315L33.098 31ZM29.556 24.785L28.335 28.261H30.777L29.556 24.785ZM37.6156 31.143C36.8749 31.143 36.2443 30.978 35.7236 30.648C35.2103 30.3107 34.8509 29.845 34.6456 29.251L35.7346 28.613C36.0426 29.4783 36.6806 29.911 37.6486 29.911C38.1179 29.911 38.4736 29.8193 38.7156 29.636C38.9576 29.4527 39.0786 29.207 39.0786 28.899C39.0786 28.591 38.9503 28.3527 38.6936 28.184C38.4369 28.0153 37.9823 27.832 37.3296 27.634C36.6623 27.436 36.1233 27.2013 35.7126 26.93C35.2139 26.578 34.9646 26.061 34.9646 25.379C34.9646 24.697 35.2066 24.158 35.6906 23.762C36.1673 23.3587 36.7503 23.157 37.4396 23.157C38.0483 23.157 38.5836 23.3073 39.0456 23.608C39.5149 23.9013 39.8743 24.3157 40.1236 24.851L39.0566 25.467C38.7339 24.7483 38.1949 24.389 37.4396 24.389C37.0729 24.389 36.7796 24.477 36.5596 24.653C36.3396 24.8217 36.2296 25.0527 36.2296 25.346C36.2296 25.632 36.3396 25.8593 36.5596 26.028C36.7796 26.1893 37.1866 26.3617 37.7806 26.545C38.1473 26.6697 38.3599 26.743 38.4186 26.765C38.5139 26.7943 38.7046 26.8677 38.9906 26.985C39.2253 27.0803 39.4123 27.183 39.5516 27.293C40.1236 27.7403 40.3876 28.2683 40.3436 28.877C40.3436 29.5737 40.0906 30.1273 39.5846 30.538C39.0933 30.9413 38.4369 31.143 37.6156 31.143ZM53.2142 31H51.8502L51.3112 29.449H48.0332L47.4942 31H46.1192L48.9132 23.3H50.4312L53.2142 31ZM49.6722 24.785L48.4512 28.261H50.8932L49.6722 24.785ZM59.9822 28.525V23.3H61.2472V31H60.2572L56.6272 25.775V31H55.3622V23.3H56.3522L59.9822 28.525ZM64.1051 23.3H67.1301C68.1861 23.3 69.0624 23.6703 69.7591 24.411C70.4631 25.1517 70.8151 26.0647 70.8151 27.15C70.8151 28.228 70.4631 29.141 69.7591 29.889C69.0624 30.6297 68.1861 31 67.1301 31H64.1051V23.3ZM65.3701 29.79H67.1301C67.8561 29.79 68.4464 29.5407 68.9011 29.042C69.3631 28.5433 69.5941 27.9127 69.5941 27.15C69.5941 26.3873 69.3631 25.7567 68.9011 25.258C68.4464 24.7593 67.8561 24.51 67.1301 24.51H65.3701V29.79ZM83.7384 31H82.3744L81.8354 29.449H78.5574L78.0184 31H76.6434L79.4374 23.3H80.9554L83.7384 31ZM80.1964 24.785L78.9754 28.261H81.4174L80.1964 24.785ZM85.8864 23.3H88.7244C89.4504 23.3 90.0554 23.542 90.5394 24.026C91.0307 24.51 91.2764 25.1113 91.2764 25.83C91.2764 26.5413 91.0307 27.1427 90.5394 27.634C90.0554 28.118 89.4504 28.36 88.7244 28.36H87.1514V31H85.8864V23.3ZM87.1514 27.172H88.7244C89.0984 27.172 89.4064 27.0473 89.6484 26.798C89.8904 26.5413 90.0114 26.2187 90.0114 25.83C90.0114 25.4413 89.8904 25.1223 89.6484 24.873C89.4064 24.6163 89.0984 24.488 88.7244 24.488H87.1514V27.172ZM93.6947 23.3H96.5327C97.2587 23.3 97.8637 23.542 98.3477 24.026C98.839 24.51 99.0847 25.1113 99.0847 25.83C99.0847 26.5413 98.839 27.1427 98.3477 27.634C97.8637 28.118 97.2587 28.36 96.5327 28.36H94.9597V31H93.6947V23.3ZM94.9597 27.172H96.5327C96.9067 27.172 97.2147 27.0473 97.4567 26.798C97.6987 26.5413 97.8197 26.2187 97.8197 25.83C97.8197 25.4413 97.6987 25.1223 97.4567 24.873C97.2147 24.6163 96.9067 24.488 96.5327 24.488H94.9597V27.172ZM107.109 31H105.745L105.206 29.449H101.928L101.389 31H100.014L102.808 23.3H104.326L107.109 31ZM103.567 24.785L102.346 28.261H104.788L103.567 24.785ZM115.033 31H113.647L112.019 28.195H110.523V31H109.258V23.3H112.338C113.027 23.3 113.61 23.542 114.087 24.026C114.571 24.4953 114.813 25.0783 114.813 25.775C114.813 26.2663 114.67 26.7173 114.384 27.128C114.105 27.5313 113.738 27.8247 113.284 28.008L115.033 31ZM112.338 24.488H110.523V27.062H112.338C112.675 27.062 112.961 26.9373 113.196 26.688C113.43 26.4387 113.548 26.1343 113.548 25.775C113.548 25.4157 113.43 25.1113 113.196 24.862C112.961 24.6127 112.675 24.488 112.338 24.488ZM116.547 23.3H122.157V24.51H119.99V31H118.725V24.51H116.547V23.3ZM130.429 23.3H131.782V31H130.517V25.511L128.174 29.383H128.02L125.677 25.5V31H124.412V23.3H125.776L128.097 27.15L130.429 23.3ZM135.902 27.711V29.79H139.312V31H134.637V23.3H139.257V24.51H135.902V26.512H138.982V27.711H135.902ZM146.41 28.525V23.3H147.675V31H146.685L143.055 25.775V31H141.79V23.3H142.78L146.41 28.525ZM149.928 23.3H155.538V24.51H153.371V31H152.106V24.51H149.928V23.3ZM160.142 31.143C159.401 31.143 158.771 30.978 158.25 30.648C157.737 30.3107 157.377 29.845 157.172 29.251L158.261 28.613C158.569 29.4783 159.207 29.911 160.175 29.911C160.644 29.911 161 29.8193 161.242 29.636C161.484 29.4527 161.605 29.207 161.605 28.899C161.605 28.591 161.477 28.3527 161.22 28.184C160.963 28.0153 160.509 27.832 159.856 27.634C159.189 27.436 158.65 27.2013 158.239 26.93C157.74 26.578 157.491 26.061 157.491 25.379C157.491 24.697 157.733 24.158 158.217 23.762C158.694 23.3587 159.277 23.157 159.966 23.157C160.575 23.157 161.11 23.3073 161.572 23.608C162.041 23.9013 162.401 24.3157 162.65 24.851L161.583 25.467C161.26 24.7483 160.721 24.389 159.966 24.389C159.599 24.389 159.306 24.477 159.086 24.653C158.866 24.8217 158.756 25.0527 158.756 25.346C158.756 25.632 158.866 25.8593 159.086 26.028C159.306 26.1893 159.713 26.3617 160.307 26.545C160.674 26.6697 160.886 26.743 160.945 26.765C161.04 26.7943 161.231 26.8677 161.517 26.985C161.752 27.0803 161.939 27.183 162.078 27.293C162.65 27.7403 162.914 28.2683 162.87 28.877C162.87 29.5737 162.617 30.1273 162.111 30.538C161.62 30.9413 160.963 31.143 160.142 31.143ZM173.87 23.3V24.51H170.625V26.666H173.76V27.876H170.625V31H169.36V23.3H173.87ZM182.809 29.988C182.039 30.758 181.097 31.143 179.982 31.143C178.867 31.143 177.921 30.758 177.144 29.988C176.374 29.2107 175.989 28.2647 175.989 27.15C175.989 26.0353 176.374 25.093 177.144 24.323C177.921 23.5457 178.867 23.157 179.982 23.157C181.097 23.157 182.039 23.5457 182.809 24.323C183.586 25.093 183.975 26.0353 183.975 27.15C183.975 28.2647 183.586 29.2107 182.809 29.988ZM178.035 29.13C178.57 29.6507 179.219 29.911 179.982 29.911C180.752 29.911 181.397 29.6507 181.918 29.13C182.446 28.602 182.71 27.942 182.71 27.15C182.71 26.358 182.446 25.7017 181.918 25.181C181.397 24.653 180.752 24.389 179.982 24.389C179.212 24.389 178.563 24.653 178.035 25.181C177.514 25.7017 177.254 26.358 177.254 27.15C177.254 27.9347 177.514 28.5947 178.035 29.13ZM192.224 31H190.838L189.21 28.195H187.714V31H186.449V23.3H189.529C190.218 23.3 190.801 23.542 191.278 24.026C191.762 24.4953 192.004 25.0783 192.004 25.775C192.004 26.2663 191.861 26.7173 191.575 27.128C191.296 27.5313 190.929 27.8247 190.475 28.008L192.224 31ZM189.529 24.488H187.714V27.062H189.529C189.866 27.062 190.152 26.9373 190.387 26.688C190.621 26.4387 190.739 26.1343 190.739 25.775C190.739 25.4157 190.621 25.1113 190.387 24.862C190.152 24.6127 189.866 24.488 189.529 24.488ZM201.148 31.143C200.407 31.143 199.776 30.978 199.256 30.648C198.742 30.3107 198.383 29.845 198.178 29.251L199.267 28.613C199.575 29.4783 200.213 29.911 201.181 29.911C201.65 29.911 202.006 29.8193 202.248 29.636C202.49 29.4527 202.611 29.207 202.611 28.899C202.611 28.591 202.482 28.3527 202.226 28.184C201.969 28.0153 201.514 27.832 200.862 27.634C200.194 27.436 199.655 27.2013 199.245 26.93C198.746 26.578 198.497 26.061 198.497 25.379C198.497 24.697 198.739 24.158 199.223 23.762C199.699 23.3587 200.282 23.157 200.972 23.157C201.58 23.157 202.116 23.3073 202.578 23.608C203.047 23.9013 203.406 24.3157 203.656 24.851L202.589 25.467C202.266 24.7483 201.727 24.389 200.972 24.389C200.605 24.389 200.312 24.477 200.092 24.653C199.872 24.8217 199.762 25.0527 199.762 25.346C199.762 25.632 199.872 25.8593 200.092 26.028C200.312 26.1893 200.719 26.3617 201.313 26.545C201.679 26.6697 201.892 26.743 201.951 26.765C202.046 26.7943 202.237 26.8677 202.523 26.985C202.757 27.0803 202.944 27.183 203.084 27.293C203.656 27.7403 203.92 28.2683 203.876 28.877C203.876 29.5737 203.623 30.1273 203.117 30.538C202.625 30.9413 201.969 31.143 201.148 31.143ZM212.569 31H211.205L210.666 29.449H207.388L206.849 31H205.474L208.268 23.3H209.786L212.569 31ZM209.027 24.785L207.806 28.261H210.248L209.027 24.785ZM215.982 23.3V29.79H219.117V31H214.717V23.3H215.982ZM222.641 27.711V29.79H226.051V31H221.376V23.3H225.996V24.51H222.641V26.512H225.721V27.711H222.641ZM232.599 31V23.3H233.864V31H232.599ZM241.343 28.525V23.3H242.608V31H241.618L237.988 25.775V31H236.723V23.3H237.713L241.343 28.525ZM249.535 23.3H252.56C253.616 23.3 254.493 23.6703 255.189 24.411C255.893 25.1517 256.245 26.0647 256.245 27.15C256.245 28.228 255.893 29.141 255.189 29.889C254.493 30.6297 253.616 31 252.56 31H249.535V23.3ZM250.8 29.79H252.56C253.286 29.79 253.877 29.5407 254.331 29.042C254.793 28.5433 255.024 27.9127 255.024 27.15C255.024 26.3873 254.793 25.7567 254.331 25.258C253.877 24.7593 253.286 24.51 252.56 24.51H250.8V29.79ZM258.577 28.448V23.3H259.842V28.371C259.842 28.8477 259.982 29.2253 260.26 29.504C260.546 29.7753 260.957 29.911 261.492 29.911C262.028 29.911 262.435 29.7753 262.713 29.504C262.999 29.2253 263.142 28.8477 263.142 28.371V23.3H264.407V28.448C264.407 29.262 264.136 29.9183 263.593 30.417C263.058 30.901 262.358 31.143 261.492 31.143C260.627 31.143 259.927 30.901 259.391 30.417C258.849 29.9183 258.577 29.262 258.577 28.448ZM271.714 27.007C272.052 27.183 272.316 27.4287 272.506 27.744C272.697 28.052 272.792 28.404 272.792 28.8C272.792 29.4307 272.569 29.955 272.121 30.373C271.674 30.791 271.128 31 270.482 31H267.182V23.3H270.24C270.871 23.3 271.403 23.5053 271.835 23.916C272.275 24.3267 272.495 24.8327 272.495 25.434C272.495 26.094 272.235 26.6183 271.714 27.007ZM270.24 24.488H268.447V26.512H270.24C270.519 26.512 270.754 26.4167 270.944 26.226C271.135 26.028 271.23 25.786 271.23 25.5C271.23 25.214 271.135 24.9757 270.944 24.785C270.754 24.587 270.519 24.488 270.24 24.488ZM268.447 29.812H270.482C270.776 29.812 271.021 29.7093 271.219 29.504C271.425 29.2913 271.527 29.0347 271.527 28.734C271.527 28.4333 271.425 28.1803 271.219 27.975C271.021 27.7623 270.776 27.656 270.482 27.656H268.447V29.812ZM281.596 31H280.232L279.693 29.449H276.415L275.876 31H274.501L277.295 23.3H278.813L281.596 31ZM278.054 24.785L276.833 28.261H279.275L278.054 24.785ZM283.744 31V23.3H285.009V31H283.744Z" fill="black"/>
</g>
<defs>
<clipPath id="clip0_879_8679">
<rect width="285" height="34" fill="white"/>
</clipPath>
</defs>
</svg>
