<svg width="262" height="15" viewBox="0 0 262 15" fill="none" xmlns="http://www.w3.org/2000/svg">
<g clip-path="url(#clip0_869_3241)">
<path d="M63.7769 6.23633C63.4912 6.23633 63.2511 6.33953 63.0454 6.54595C62.8397 6.75236 62.7368 7.00464 62.7368 7.29132C62.7368 7.57801 62.8397 7.81882 63.0454 8.02523C63.2511 8.23164 63.4912 8.33485 63.7769 8.33485H75.1721C75.4578 8.33485 75.6979 8.23164 75.9036 8.02523C76.1093 7.81882 76.2122 7.57801 76.2122 7.29132C76.2122 6.99317 76.1093 6.74089 75.9036 6.54595C75.6979 6.33953 75.4578 6.23633 75.1721 6.23633H63.7769Z" fill="#E6214C"/>
<path d="M19.9673 1.76522C20.173 1.5588 20.2759 1.31799 20.2759 1.03131C20.2759 0.744623 20.173 0.503807 19.9673 0.285928C19.7616 0.0795157 19.5216 -0.0351562 19.2358 -0.0351562H4.27463C3.3717 -0.0351562 2.65164 0.0451121 2.0916 0.217122C1.53155 0.389132 1.10866 0.629948 0.800064 0.962501C0.491468 1.28359 0.285737 1.68494 0.171442 2.16657C0.0571474 2.6482 0 3.19863 0 3.81787V10.6639C0 11.329 0.0457179 11.9138 0.148583 12.4184C0.251449 12.9229 0.44575 13.3472 0.754346 13.7027C1.05151 14.0467 1.48583 14.3105 2.04588 14.4825C2.60592 14.6545 3.34884 14.7462 4.27463 14.7462H19.2358C19.5216 14.7462 19.7616 14.643 19.9673 14.4366C20.173 14.2302 20.2759 13.9894 20.2759 13.7027C20.2759 13.416 20.173 13.1752 19.9673 12.9688C19.7616 12.7624 19.5216 12.6592 19.2358 12.6592H4.1489C3.63458 12.6592 3.22311 12.6362 2.94881 12.5789C2.66307 12.5216 2.45734 12.4184 2.33161 12.2693C2.20589 12.1202 2.12588 11.9253 2.10302 11.6615C2.08017 11.4092 2.06874 11.0767 2.06874 10.6639V3.85227C2.06874 3.48532 2.08017 3.18716 2.11445 2.94635C2.13731 2.70554 2.22875 2.52206 2.3659 2.38445C2.50306 2.24684 2.70879 2.15511 2.9831 2.09777C3.2574 2.04043 3.64601 2.0175 4.1489 2.0175L19.2358 2.04043C19.5216 2.04043 19.7616 1.93723 19.9673 1.73081V1.76522Z" fill="#E6214C"/>
<path d="M79.3777 1.76522C79.5834 1.5588 79.6863 1.31799 79.6863 1.03131C79.6863 0.744623 79.5834 0.503807 79.3777 0.285928C79.172 0.0795157 78.932 -0.0351562 78.6462 -0.0351562H63.685C62.7821 -0.0351562 62.062 0.0451121 61.502 0.217122C60.942 0.389132 60.5191 0.629948 60.2105 0.962501C59.9019 1.28359 59.6961 1.68494 59.5818 2.16657C59.4675 2.6482 59.4104 3.19863 59.4104 3.81787V10.6639C59.4104 11.329 59.4561 11.9138 59.559 12.4184C59.6619 12.9229 59.8562 13.3472 60.1647 13.7027C60.4619 14.0467 60.8962 14.3105 61.4563 14.4825C62.0163 14.6545 62.7592 14.7462 63.685 14.7462H78.6462C78.932 14.7462 79.172 14.643 79.3777 14.4366C79.5834 14.2302 79.6863 13.9894 79.6863 13.7027C79.6863 13.416 79.5834 13.1752 79.3777 12.9688C79.172 12.7624 78.932 12.6592 78.6462 12.6592H63.5593C63.045 12.6592 62.6335 12.6362 62.3592 12.5789C62.0735 12.5216 61.8677 12.4184 61.742 12.2693C61.6049 12.1202 61.5363 11.9253 61.5134 11.6615C61.4906 11.4092 61.4791 11.0767 61.4791 10.6639V3.85227C61.4791 3.48532 61.4906 3.18716 61.5249 2.94635C61.5591 2.70554 61.6391 2.52206 61.7763 2.38445C61.9135 2.24684 62.1192 2.15511 62.3935 2.09777C62.6678 2.04043 63.0564 2.0175 63.5593 2.0175L78.6462 2.04043C78.932 2.04043 79.172 1.93723 79.3777 1.73081V1.76522Z" fill="#E6214C"/>
<path d="M4.36601 6.23633C4.08027 6.23633 3.84025 6.33953 3.63452 6.54595C3.42879 6.75236 3.32593 7.00464 3.32593 7.29132C3.32593 7.57801 3.42879 7.81882 3.63452 8.02523C3.84025 8.23164 4.08027 8.33485 4.36601 8.33485H15.7612C16.0469 8.33485 16.287 8.23164 16.4927 8.02523C16.6984 7.81882 16.8013 7.57801 16.8013 7.29132C16.8013 6.99317 16.6984 6.74089 16.4927 6.54595C16.287 6.33953 16.0469 6.23633 15.7612 6.23633H4.36601Z" fill="#E6214C"/>
<path d="M48.7467 -0.0234375C48.4495 -0.0234375 48.198 0.079769 48.0037 0.286181C47.8094 0.492593 47.6951 0.733406 47.6951 1.02009V4.44882C47.6951 5.1254 47.5351 5.80197 47.2265 6.47854C46.9179 7.15512 46.5179 7.79729 46.0379 8.40506C45.5578 9.01282 45.0206 9.57472 44.4263 10.1022C43.832 10.6297 43.2605 11.0884 42.7005 11.4668C42.1404 11.8453 41.6261 12.1434 41.1689 12.3613C40.7117 12.5792 40.4031 12.6938 40.1974 12.7512C39.9688 12.8085 39.5116 12.8085 39.1802 12.7168C38.9287 12.648 38.723 12.5792 38.2658 12.3613C37.8201 12.1434 37.4886 11.8567 36.9171 11.4783C36.3457 11.0999 35.7742 10.6412 35.1913 10.1137C34.597 9.58619 34.0598 9.01282 33.5797 8.41652C33.0997 7.80875 32.6997 7.16658 32.3911 6.49001C32.0825 5.81344 31.9225 5.13686 31.9225 4.46029V1.03156C31.9225 0.744876 31.8196 0.504063 31.6139 0.297651C31.4081 0.0912388 31.1681 -0.0119677 30.8824 -0.0119677C30.5966 -0.0119677 30.3566 0.0912388 30.1509 0.297651C29.9451 0.504063 29.8423 0.744876 29.8423 1.03156V4.50616C29.8537 5.1254 30.0366 6.37534 30.3909 7.08631C30.7452 7.79728 31.191 8.50826 31.7396 9.21923C32.2882 9.93021 32.894 10.6182 33.5569 11.2834C34.2198 11.9485 34.8827 12.5333 35.5456 13.0379C36.2085 13.5424 36.8143 13.9552 37.3743 14.2763C37.9344 14.5974 38.7573 14.8497 39.1002 14.907C39.6831 14.9988 40.0031 14.9988 40.5517 14.9185C40.8717 14.8726 41.5804 14.6203 42.1404 14.3222C42.7005 14.024 43.3062 13.6112 43.9577 13.0952C44.6092 12.5792 45.2835 11.9943 45.9579 11.3292C46.6436 10.6641 47.2608 9.97608 47.8094 9.2651C48.3695 8.55413 48.8152 7.83169 49.181 7.10924C49.5467 6.3868 49.7296 5.1254 49.741 4.50616V1.03156C49.741 0.744876 49.6382 0.504063 49.4324 0.297651C49.2267 0.0912388 48.9867 -0.0119677 48.7009 -0.0119677L48.7467 -0.0234375Z" fill="#E6214C"/>
<path d="M190.015 4.48438C189.729 4.48438 189.489 4.58758 189.284 4.79399C189.078 5.00041 188.975 5.24122 188.975 5.5279V13.7271C188.975 14.0137 189.078 14.2545 189.284 14.461C189.489 14.6674 189.729 14.7706 190.015 14.7706C190.312 14.7706 190.564 14.6674 190.758 14.461C190.952 14.2545 191.067 14.0137 191.067 13.7271V5.5279C191.067 5.24122 190.964 5.00041 190.758 4.79399C190.552 4.58758 190.301 4.48438 190.015 4.48438Z" fill="#E6214C"/>
<path d="M200.45 1.36411C200.004 0.836611 199.376 0.46966 198.541 0.274716C197.707 0.0797709 196.621 -0.0234375 195.272 -0.0234375H184.46C183.134 -0.0119702 182.083 0.102702 181.294 0.320582C180.506 0.538461 179.9 0.928353 179.477 1.47878C179.054 2.04068 178.78 2.79753 178.654 3.74932C178.528 4.7011 178.46 5.93958 178.46 7.43033V13.7144C178.46 14.0011 178.563 14.2419 178.768 14.4483C178.974 14.6547 179.214 14.758 179.5 14.758C179.786 14.758 180.026 14.6547 180.243 14.4483C180.448 14.2419 180.563 14.0011 180.563 13.7144V7.43033C180.563 6.14599 180.608 5.14833 180.7 4.41442C180.791 3.69198 181.008 3.15301 181.363 2.79752C181.717 2.44204 182.243 2.23563 182.94 2.15536C183.637 2.07509 184.609 2.04068 185.843 2.04068H194.13C195.353 2.04068 196.313 2.07508 197.033 2.14389C197.741 2.21269 198.278 2.43057 198.633 2.77459C198.987 3.13008 199.216 3.65758 199.319 4.38002C199.421 5.10246 199.467 6.11159 199.467 7.41886V13.703C199.467 13.9896 199.57 14.2305 199.787 14.4369C199.993 14.6433 200.244 14.7465 200.53 14.7465C200.816 14.7465 201.056 14.6433 201.262 14.4369C201.467 14.2305 201.57 13.9896 201.57 13.703V7.23539C201.57 5.74463 201.502 4.51763 201.353 3.56584C201.204 2.61405 200.907 1.88014 200.473 1.34118L200.45 1.36411Z" fill="#E6214C"/>
<path d="M230.978 1.76522C231.184 1.5588 231.287 1.31799 231.287 1.03131C231.287 0.744623 231.184 0.503807 230.978 0.285928C230.773 0.0795157 230.533 -0.0351562 230.247 -0.0351562H215.286C214.383 -0.0351562 213.663 0.0451121 213.103 0.217122C212.543 0.389132 212.12 0.629948 211.811 0.962501C211.502 1.29505 211.297 1.68494 211.182 2.16657C211.068 2.6482 211.011 3.19863 211.011 3.81787V10.6639C211.011 11.329 211.057 11.9138 211.16 12.4184C211.262 12.9229 211.457 13.3472 211.765 13.7027C212.063 14.0467 212.497 14.3105 213.057 14.4825C213.617 14.6545 214.36 14.7462 215.286 14.7462H230.247C230.533 14.7462 230.773 14.643 230.978 14.4366C231.184 14.2302 231.287 13.9894 231.287 13.7027C231.287 13.416 231.184 13.1752 230.978 12.9688C230.773 12.7624 230.533 12.6592 230.247 12.6592H215.16C214.646 12.6592 214.234 12.6362 213.96 12.5789C213.674 12.5216 213.468 12.4184 213.343 12.2693C213.217 12.1202 213.137 11.9253 213.114 11.6615C213.091 11.4092 213.08 11.0767 213.08 10.6639V3.85227C213.08 3.48532 213.091 3.18716 213.125 2.94635C213.148 2.70554 213.24 2.52206 213.377 2.38445C213.514 2.24684 213.72 2.15511 213.994 2.09777C214.268 2.04043 214.657 2.0175 215.16 2.0175L230.247 2.04043C230.533 2.04043 230.773 1.93723 230.978 1.73081V1.76522Z" fill="#E6214C"/>
<path d="M215.389 6.23633C215.103 6.23633 214.863 6.33953 214.657 6.54595C214.452 6.75236 214.349 7.00464 214.349 7.29132C214.349 7.57801 214.452 7.81882 214.657 8.02523C214.863 8.23164 215.103 8.33485 215.389 8.33485H226.784C227.07 8.33485 227.31 8.23164 227.515 8.02523C227.721 7.81882 227.824 7.57801 227.824 7.29132C227.824 6.99317 227.721 6.74089 227.515 6.54595C227.31 6.33953 227.07 6.23633 226.784 6.23633H215.389Z" fill="#E6214C"/>
<path d="M259.209 5.21713C259.415 5.42354 259.655 5.52675 259.941 5.52675C260.227 5.52675 260.467 5.42354 260.672 5.21713C260.878 5.01072 260.981 4.75844 260.981 4.47176V3.60024C260.981 3.53144 260.981 3.48557 260.981 3.45117C260.981 3.42823 260.981 3.4053 260.981 3.38236C260.958 2.86633 260.878 2.39617 260.775 1.99482C260.661 1.59346 260.478 1.24944 260.215 0.962754C259.952 0.67607 259.598 0.446724 259.152 0.286181C258.706 0.125638 258.124 0.0224318 257.426 -0.0234375H245.288C244.442 -0.0234375 243.757 0.0453693 243.219 0.194445C242.682 0.34352 242.259 0.561397 241.939 0.859548C241.619 1.1577 241.402 1.52465 241.276 1.96041C241.151 2.39617 241.082 2.90073 241.071 3.46263V4.31122C241.071 4.97632 241.116 5.56115 241.219 6.06572C241.322 6.57028 241.517 6.99457 241.814 7.35006C242.111 7.69408 242.534 7.95782 243.094 8.1413C243.654 8.32478 244.385 8.41652 245.3 8.41652H256.866C257.369 8.41652 257.758 8.43946 258.032 8.48532C258.306 8.53119 258.512 8.6344 258.649 8.77201C258.786 8.90962 258.878 9.10456 258.901 9.33391C258.924 9.56325 258.946 9.86141 258.946 10.2284V10.71C258.946 11.0884 258.935 11.4095 258.901 11.6618C258.878 11.9141 258.798 12.1205 258.672 12.2695C258.546 12.4186 258.352 12.5218 258.078 12.5906C257.815 12.6594 257.438 12.6824 256.958 12.6824H245.265C244.751 12.6824 244.34 12.648 244.054 12.5906C243.768 12.5218 243.551 12.4186 243.425 12.2695C243.288 12.1205 243.208 11.9255 243.185 11.6618C243.162 11.4095 243.139 11.0884 243.139 10.71V10.2398C243.139 9.95314 243.037 9.71233 242.831 9.50592C242.625 9.2995 242.385 9.1963 242.099 9.1963C241.814 9.1963 241.574 9.2995 241.368 9.50592C241.162 9.71233 241.059 9.95314 241.059 10.2398V11.3407C241.082 11.8911 241.162 12.3842 241.288 12.8085C241.414 13.2328 241.631 13.5998 241.951 13.875C242.271 14.1617 242.694 14.3681 243.231 14.5171C243.768 14.6662 244.442 14.735 245.277 14.735H257.415C258.135 14.6891 258.718 14.5859 259.164 14.4139C259.609 14.2419 259.975 14.0126 260.238 13.7144C260.501 13.4163 260.695 13.0608 260.798 12.648C260.901 12.2351 260.969 11.7535 261.004 11.226V10.1481C261.004 9.52885 260.947 8.97842 260.832 8.50826C260.718 8.0381 260.512 7.63674 260.215 7.31566C259.918 6.99457 259.484 6.74229 258.924 6.57028C258.364 6.39827 257.632 6.318 256.729 6.318H245.243C244.728 6.318 244.317 6.29506 244.031 6.23772C243.745 6.18039 243.528 6.07718 243.402 5.91664C243.265 5.7561 243.197 5.54969 243.174 5.2974C243.151 5.03366 243.139 4.70111 243.139 4.28828V3.99013C243.139 3.60024 243.151 3.26769 243.185 3.01541C243.208 2.76313 243.299 2.55671 243.425 2.40764C243.562 2.25856 243.768 2.15536 244.054 2.09802C244.34 2.04068 244.751 2.01775 245.265 2.01775H256.958C257.438 2.01775 257.804 2.05215 258.078 2.10949C258.341 2.17829 258.546 2.2815 258.672 2.43057C258.798 2.57965 258.878 2.77459 258.901 3.03834C258.924 3.29062 258.946 3.61171 258.946 3.99013V4.43735C258.946 4.7355 259.049 4.98779 259.255 5.18273L259.209 5.21713Z" fill="#E6214C"/>
<path d="M166.973 1.32971C166.379 0.813678 165.693 0.458191 164.905 0.286181C164.116 0.114171 163.282 0.0109645 162.402 -0.0234375H156.355C155.372 -0.0234375 154.435 0.033899 153.544 0.16004C152.652 0.28618 151.864 0.58433 151.189 1.07743C150.515 1.57052 149.978 2.3159 149.578 3.31356C149.178 4.31121 148.972 5.69876 148.972 7.45326C148.972 9.20777 149.178 10.5838 149.578 11.57C149.978 12.5562 150.515 13.2787 151.189 13.7488C151.864 14.219 152.652 14.5057 153.544 14.6089C154.435 14.7121 155.372 14.758 156.355 14.758H161.476C162.139 14.758 162.779 14.735 163.407 14.7006C164.036 14.6662 164.619 14.5745 165.168 14.4139C165.716 14.2534 166.219 14.024 166.676 13.7144C167.133 13.4048 167.522 12.9805 167.842 12.4416C168.162 11.9026 168.413 11.226 168.596 10.4118C168.779 9.59766 168.871 8.61146 168.871 7.45326C168.871 5.83637 168.699 4.54056 168.368 3.56584C168.036 2.59112 167.568 1.84574 166.973 1.32971ZM166.516 10.1137C166.322 10.8132 166.025 11.3522 165.602 11.7306C165.179 12.109 164.63 12.3613 163.956 12.4874C163.282 12.6136 162.447 12.6824 161.464 12.6824H156.344C155.372 12.6824 154.55 12.6136 153.875 12.4874C153.201 12.3613 152.652 12.109 152.229 11.7306C151.806 11.3522 151.498 10.8132 151.315 10.1137C151.121 9.41418 151.029 8.49679 151.029 7.35006C151.029 6.20332 151.121 5.28594 151.315 4.58643C151.509 3.88692 151.806 3.34796 152.229 2.981C152.652 2.60258 153.201 2.36177 153.875 2.23563C154.55 2.10949 155.372 2.04068 156.344 2.04068H161.464C162.447 2.04068 163.282 2.10949 163.956 2.23563C164.63 2.36177 165.179 2.61405 165.602 2.981C166.025 3.35942 166.333 3.88692 166.516 4.58643C166.71 5.28594 166.802 6.20332 166.802 7.35006C166.802 8.49679 166.71 9.41418 166.516 10.1137Z" fill="#E6214C"/>
<path d="M138.342 -0.0234375C138.057 -0.0234375 137.817 0.079769 137.611 0.286181C137.405 0.492593 137.302 0.733406 137.302 1.02009V4.32268C137.302 4.73551 137.302 5.06806 137.268 5.33181C137.245 5.59556 137.165 5.80197 137.039 5.95104C136.914 6.10012 136.696 6.21479 136.422 6.27213C136.136 6.32947 135.736 6.3524 135.222 6.3524H123.587C123.084 6.3524 122.684 6.318 122.41 6.26066C122.124 6.19185 121.93 6.08865 121.804 5.93958C121.678 5.7905 121.598 5.58409 121.575 5.33181C121.552 5.06806 121.53 4.74697 121.53 4.34562V1.03156C121.53 0.744876 121.427 0.504063 121.21 0.297651C121.004 0.0912388 120.752 -0.0119677 120.467 -0.0119677C120.181 -0.0119677 119.941 0.0912388 119.735 0.297651C119.529 0.504063 119.427 0.744876 119.427 1.03156V4.43735C119.438 5.09099 119.427 9.76966 119.427 10.4462V13.7488C119.427 14.0355 119.529 14.2763 119.735 14.4827C119.941 14.6891 120.181 14.7924 120.467 14.7924C120.752 14.7924 120.992 14.6891 121.21 14.4827C121.415 14.2763 121.53 14.0355 121.53 13.7488V10.2628C121.53 9.90727 121.541 9.62059 121.575 9.37977C121.598 9.15043 121.678 8.96695 121.792 8.82934C121.907 8.69174 122.09 8.59999 122.341 8.53119C122.592 8.46239 122.924 8.43945 123.358 8.43945H135.222C135.736 8.43945 136.148 8.46239 136.422 8.51972C136.708 8.57706 136.914 8.68027 137.039 8.82934C137.177 8.97842 137.245 9.18483 137.268 9.43711C137.291 9.70086 137.302 10.0334 137.302 10.4462V13.7488C137.302 14.0355 137.405 14.2763 137.611 14.4827C137.817 14.6891 138.057 14.7924 138.342 14.7924C138.628 14.7924 138.868 14.6891 139.074 14.4827C139.28 14.2763 139.382 14.0355 139.382 13.7488V1.04302C139.382 0.756341 139.28 0.515528 139.074 0.309116C138.868 0.102704 138.628 -0.000502314 138.342 -0.000502314V-0.0234375Z" fill="#E6214C"/>
<path d="M107.197 8.1413C107.757 7.95782 108.18 7.69408 108.477 7.35006C108.774 7.00604 108.969 6.58175 109.071 6.06572C109.174 5.56115 109.22 4.97632 109.22 4.31122V3.46263C109.197 2.90073 109.117 2.39617 109.003 1.96041C108.889 1.52465 108.671 1.1577 108.351 0.859548C108.031 0.561397 107.609 0.34352 107.071 0.194445C106.534 0.0453693 105.837 -0.0234375 104.991 -0.0234375H92.8988C92.1559 0.0224318 91.5501 0.137106 91.0815 0.309116C90.6129 0.481126 90.2471 0.744875 89.9843 1.06596C89.7214 1.38705 89.5499 1.77693 89.4471 2.23563C89.3442 2.69432 89.2871 3.22182 89.2756 3.80665V4.40295C89.2871 5.05659 89.2756 9.73526 89.2756 10.4118V13.7144C89.2756 14.0011 89.3785 14.2419 89.5957 14.4483C89.8128 14.6547 90.0528 14.758 90.3386 14.758C90.6243 14.758 90.8643 14.6547 91.0701 14.4483C91.2758 14.2419 91.3787 14.0011 91.3787 13.7144V10.2628C91.3787 9.90727 91.3901 9.60912 91.4244 9.37978C91.4472 9.13896 91.5272 8.95548 91.6415 8.80641C91.7558 8.6688 91.9387 8.56559 92.1902 8.49679C92.4416 8.42799 92.7731 8.40505 93.2074 8.40505H99.3107C103.471 9.07016 105.368 11.0655 107.551 14.7465C107.711 15.0217 108.009 15.1708 108.306 15.1708C108.454 15.1708 108.614 15.1249 108.751 15.0446C109.163 14.7924 109.3 14.2534 109.06 13.8406C107.791 11.6962 106.466 9.76967 104.351 8.40505H105.037C105.951 8.40505 106.683 8.31331 107.243 8.12984L107.197 8.1413ZM93.4017 6.34093C92.8988 6.34093 92.4987 6.30653 92.2244 6.24919C91.9387 6.18039 91.7444 6.07719 91.6187 5.92811C91.493 5.77904 91.4129 5.57262 91.3901 5.32034C91.3672 5.05659 91.3444 4.7355 91.3444 4.33415V3.97866C91.3444 3.61171 91.3558 3.30209 91.3901 3.06128C91.4129 2.809 91.493 2.61405 91.6187 2.46498C91.7444 2.3159 91.9387 2.21269 92.213 2.14389C92.4873 2.07508 92.8416 2.05215 93.3102 2.05215H105.025C105.54 2.05215 105.951 2.07509 106.226 2.13242C106.511 2.18976 106.717 2.29297 106.843 2.44204C106.98 2.59112 107.06 2.78606 107.083 3.04981C107.106 3.30209 107.128 3.62318 107.128 4.02453V4.32268C107.128 4.73551 107.128 5.06806 107.094 5.33181C107.071 5.59556 106.991 5.80197 106.866 5.95104C106.728 6.11158 106.523 6.21479 106.248 6.27213C105.963 6.32947 105.563 6.3524 105.048 6.3524H93.4131L93.4017 6.34093Z" fill="#E6214C"/>
</g>
<defs>
<clipPath id="clip0_869_3241">
<rect width="262" height="15" fill="white"/>
</clipPath>
</defs>
</svg>
