<?xml version="1.0" standalone="no"?>
<!DOCTYPE svg PUBLIC "-//W3C//DTD SVG 20010904//EN"
 "http://www.w3.org/TR/2001/REC-SVG-20010904/DTD/svg10.dtd">
<svg version="1.0" xmlns="http://www.w3.org/2000/svg"
 width="700.000000pt" height="700.000000pt" viewBox="0 0 700.000000 700.000000"
 preserveAspectRatio="xMidYMid meet">
<metadata>
Created by potrace 1.14, written by Peter Selinger 2001-2017
</metadata>
<g transform="translate(0.000000,700.000000) scale(0.100000,-0.100000)"
fill="#000000" stroke="none">
<path d="M1398 5935 c-2 -2 -40 -6 -86 -9 -46 -4 -89 -9 -95 -11 -7 -2 -37 -6
-67 -10 -186 -20 -420 -111 -557 -217 -158 -121 -276 -343 -308 -578 -3 -25
-8 -52 -10 -60 -2 -8 -7 -49 -12 -90 -10 -96 -11 -2766 0 -2880 36 -401 140
-629 360 -793 121 -91 356 -172 582 -201 141 -18 483 -21 2760 -21 l2530 1 48
22 c62 28 151 118 179 179 17 37 22 68 22 138 1 78 -2 97 -26 145 -33 68 -97
134 -163 169 l-50 26 -635 2 c-349 2 -1519 4 -2600 6 -1081 2 -1981 6 -2000
10 -144 30 -187 45 -237 83 -36 27 -78 94 -94 146 -21 73 -24 243 -24 1538 0
1422 1 1454 46 1541 52 103 157 156 349 178 53 6 1060 9 2635 8 l2550 -2 55
28 c30 16 65 38 78 49 12 12 22 18 22 13 0 -4 12 10 28 31 55 79 71 132 69
226 -3 112 -60 215 -154 279 -88 61 74 58 -2675 57 -1385 -1 -2519 -2 -2520
-3z"/>
<path d="M1580 3861 c-118 -25 -237 -150 -256 -271 -11 -68 -11 -82 3 -145 25
-110 94 -194 201 -243 l56 -25 1861 -1 c1023 -1 1883 2 1911 6 70 11 134 49
194 116 153 172 95 438 -119 544 l-46 23 -1885 1 c-1037 1 -1901 -1 -1920 -5z"/>
</g>
</svg>
