<svg width="12" height="15" viewBox="0 0 12 15" fill="none" xmlns="http://www.w3.org/2000/svg">
<path fill-rule="evenodd"  clip-rule="evenodd"
      d="M0 6.32243C0 3.10252 2.69072 0.5 5.94541 0.5C9.20928 0.5 11.9 3.10252 11.9 6.32243C11.9 7.94498 11.3099 9.45134 10.3387 10.7281C9.26716 12.1365 7.94651 13.3635 6.45998 14.3267C6.11976 14.5493 5.81271 14.5661 5.43931 14.3267C3.94431 13.3635 2.62366 12.1365 1.56135 10.7281C0.589388 9.45134 0 7.94498 0 6.32243ZM3.98584 6.50291C3.98584 7.58158 4.86604 8.42996 5.94529 8.42996C7.02525 8.42996 7.91392 7.58158 7.91392 6.50291C7.91392 5.43264 7.02525 4.54297 5.94529 4.54297C4.86604 4.54297 3.98584 5.43264 3.98584 6.50291Z" fill="#E6214C"/>
</svg>
