<svg width="71" height="71" viewBox="0 0 71 71" fill="none" xmlns="http://www.w3.org/2000/svg">
<g clip-path="url(#clip0_803_2379)">
<path d="M42.4765 54.3716C40.701 55.1162 39.9564 57.2354 40.7582 58.9537L43.5648 64.8532C44.3666 66.5136 46.314 67.2588 48.0323 66.5136C52.9008 64.4517 57.0819 61.7597 60.4039 58.4949C64.4705 54.658 67.2198 50.2478 68.709 45.3793C70.1981 40.453 71 33.7523 71 25.2181L71 7.63436C71 5.74425 69.4536 4.1978 67.5634 4.1978L45.0539 4.1978C43.1638 4.1978 41.6174 5.74425 41.6174 7.63436L41.6174 30.1439C41.6174 32.0345 43.1638 33.5804 45.0539 33.5804L55.8218 33.5804C55.7073 39.3659 54.3327 44.0047 51.8125 47.4991C49.7506 50.3045 46.6577 52.5955 42.4765 54.3716Z" fill="#E6214C"/>
<path d="M2.03964 54.3725C0.264081 55.1171 -0.479936 57.2363 0.321357 58.9546L3.12788 64.7962C3.92975 66.4572 5.87714 67.2018 7.59542 66.4572C12.4066 64.3953 16.5311 61.7033 19.9098 58.4958C23.977 54.6011 26.7829 50.1908 28.2727 45.3223C29.7618 40.5117 30.5059 33.8098 30.5059 25.2184L30.5059 7.63467C30.5059 5.74456 28.9594 4.1981 27.0693 4.1981L4.55979 4.1981C2.66968 4.1981 1.12323 5.74456 1.12323 7.63467L1.12323 30.1442C1.12323 32.0349 2.66968 33.5807 4.55979 33.5807L15.385 33.5807C15.2704 39.3662 13.8952 44.005 11.3756 47.4994C9.3137 50.3054 6.22079 52.5964 2.03964 54.3725Z" fill="#E6214C"/>
</g>
<defs>
<clipPath id="clip0_803_2379">
<rect width="71" height="71" fill="white" transform="translate(71 71) rotate(-180)"/>
</clipPath>
</defs>
</svg>
