<svg width="0" height="0" class="hidden">
  <symbol fill="none" xmlns="http://www.w3.org/2000/svg" viewBox="0 0 71 63" id="quotes">
    <path d="M42.4765 50.3716C40.701 51.1162 39.9564 53.2354 40.7582 54.9537L43.5648 60.8532C44.3666 62.5136 46.314 63.2588 48.0323 62.5136C52.9008 60.4517 57.0819 57.7597 60.4039 54.4949C64.4705 50.658 67.2198 46.2478 68.709 41.3793C70.1981 36.453 71 29.7523 71 21.2181L71 3.63436C71 1.74425 69.4536 0.1978 67.5634 0.197799L45.0539 0.197797C43.1638 0.197797 41.6174 1.74425 41.6174 3.63436L41.6174 26.1439C41.6174 28.0345 43.1638 29.5804 45.0539 29.5804L55.8218 29.5804C55.7073 35.3659 54.3327 40.0047 51.8125 43.4991C49.7506 46.3045 46.6577 48.5955 42.4765 50.3716Z" fill="#E6214C"></path>
    <path d="M2.03964 50.3725C0.264081 51.1171 -0.479936 53.2363 0.321357 54.9546L3.12788 60.7962C3.92975 62.4572 5.87714 63.2018 7.59542 62.4572C12.4066 60.3953 16.5311 57.7033 19.9098 54.4958C23.977 50.6011 26.7829 46.1908 28.2727 41.3223C29.7618 36.5117 30.5059 29.8098 30.5059 21.2184L30.5059 3.63467C30.5059 1.74456 28.9594 0.198105 27.0693 0.198105L4.55979 0.198103C2.66968 0.198102 1.12323 1.74456 1.12323 3.63467L1.12323 26.1442C1.12323 28.0349 2.66968 29.5807 4.55979 29.5807L15.385 29.5807C15.2704 35.3662 13.8952 40.005 11.3756 43.4994C9.3137 46.3054 6.22079 48.5964 2.03964 50.3725Z" fill="#E6214C"></path>
  </symbol>
  <symbol fill="none" xmlns="http://www.w3.org/2000/svg" viewBox="0 0 71 71" id="link">
    <path d="M38.2156 49.0803L27.3523 59.9438C27.3523 59.9438 27.3523 59.9441 27.352 59.9441C27.352 59.9441 27.352 59.9444 27.3518 59.9444C22.8595 64.4369 15.5495 64.4372 11.0567 59.9444C8.88015 57.7678 7.68179 54.8741 7.68179 51.7965C7.68179 48.7192 8.88015 45.826 11.0559 43.6495C11.0561 43.6492 11.0564 43.649 11.0567 43.6487L21.92 32.7851C23.4197 31.2851 23.4197 28.8531 21.9197 27.3533C20.42 25.8536 17.9879 25.8536 16.4879 27.3533L5.62461 38.2169C5.62384 38.2177 5.62307 38.2187 5.6223 38.2195C1.99675 41.8463 0 46.6682 0 51.7965C0 56.9262 1.99752 61.7488 5.62486 65.3762C9.36897 69.12 14.2866 70.9921 19.2045 70.9921C24.1224 70.9921 29.0402 69.12 32.7838 65.3762V65.3759C32.7841 65.3759 32.7841 65.3756 32.7841 65.3756L43.6474 54.5121C45.1472 53.0123 45.1472 50.5803 43.6472 49.0803C42.1477 47.5805 39.7159 47.5805 38.2156 49.0803Z" fill="#E6214C"></path>
    <path d="M70.9998 19.2051C70.9998 14.0754 69.002 9.25279 65.3746 5.62544C57.8867 -1.86226 45.7031 -1.862 38.2157 5.62544C38.2154 5.62596 38.2149 5.62621 38.2146 5.62673L27.3516 16.4895C25.8516 17.9893 25.8516 20.4216 27.3516 21.9213C28.1018 22.6716 29.0846 23.0465 30.0676 23.0465C31.0503 23.0465 32.0336 22.6713 32.7834 21.9213L43.6464 11.0585C43.6467 11.058 43.6472 11.0578 43.6477 11.0572C48.14 6.56493 55.45 6.56467 59.9429 11.0572C62.1191 13.2337 63.318 16.1275 63.318 19.2051C63.318 22.2824 62.1196 25.1756 59.9436 27.3521C59.9434 27.3524 59.9431 27.3526 59.9429 27.3529L49.0795 38.2165C47.5798 39.7162 47.5798 42.1483 49.0798 43.6483C49.8298 44.3983 50.8128 44.7734 51.7955 44.7734C52.7786 44.7734 53.7616 44.3983 54.5116 43.6483L65.3749 32.7847C65.3757 32.7839 65.3764 32.7829 65.3772 32.7821C69.0028 29.1553 70.9998 24.3334 70.9998 19.2051Z" fill="#E6214C"></path>
    <path d="M21.9199 49.0807C22.6699 49.8307 23.6529 50.2058 24.6357 50.2058C25.6187 50.2058 26.6017 49.8307 27.3517 49.0807L49.0789 27.3535C50.5789 25.8537 50.5789 23.4217 49.0789 21.9217C47.5792 20.4219 45.1471 20.4219 43.6471 21.9217L21.9199 43.6486C20.4199 45.1489 20.4199 47.5809 21.9199 49.0807Z" fill="#E6214C"></path>
  </symbol>
  <symbol fill="none" xmlns="http://www.w3.org/2000/svg" viewBox="0 0 22 25" id="location2">
    <path fill-rule="evenodd" clip-rule="evenodd" d="M0 10.3972C0 4.64736 4.80485 0 10.6168 0C16.4451 0 21.25 4.64736 21.25 10.3972C21.25 13.2946 20.1963 15.9845 18.4619 18.2645C16.5485 20.7794 14.1902 22.9706 11.5357 24.6905C10.9281 25.088 10.3798 25.118 9.71306 24.6905C7.04342 22.9706 4.68511 20.7794 2.78813 18.2645C1.05248 15.9845 0 13.2946 0 10.3972ZM7.11719 10.7226C7.11719 12.6487 8.68897 14.1637 10.6162 14.1637C12.5447 14.1637 14.1316 12.6487 14.1316 10.7226C14.1316 8.81136 12.5447 7.22266 10.6162 7.22266C8.68897 7.22266 7.11719 8.81136 7.11719 10.7226Z" fill="white"></path>
  </symbol>
  <symbol fill="none" xmlns="http://www.w3.org/2000/svg" viewBox="0 0 18 14" id="mail">
    <path d="M10.5043 9.02586C10.0565 9.3244 9.53631 9.48222 9 9.48222C8.46373 9.48222 7.94355 9.3244 7.49573 9.02586L0.119848 4.10845C0.0789258 4.08116 0.0390586 4.05272 0 4.02347V12.0812C0 13.005 0.749707 13.7382 1.65702 13.7382H16.3429C17.2668 13.7382 18 12.9885 18 12.0812V4.02344C17.9608 4.05276 17.9209 4.08127 17.8799 4.10859L10.5043 9.02586Z" fill="white"></path>
    <path d="M0.704883 3.23175L8.08077 8.1492C8.35998 8.33535 8.67997 8.42841 8.99996 8.42841C9.31999 8.42841 9.64002 8.33531 9.91923 8.1492L17.2951 3.23175C17.7365 2.93767 18 2.44548 18 1.91427C18 1.00088 17.2569 0.257812 16.3435 0.257812H1.65646C0.743098 0.257848 0 1.00091 0 1.91515C0 2.44548 0.263531 2.93767 0.704883 3.23175Z" fill="white"></path>
  </symbol>
  <symbol fill="none" xmlns="http://www.w3.org/2000/svg" viewBox="0 0 16 14" id="mail2">
    <path fill-rule="evenodd" clip-rule="evenodd" d="M11.7043 0.289062C12.71 0.289062 13.6775 0.684238 14.3892 1.39332C15.1017 2.1009 15.5 3.05529 15.5 4.05441V9.94476C15.5 12.025 13.7975 13.7101 11.7043 13.7101H4.295C2.20175 13.7101 0.5 12.025 0.5 9.94476V4.05441C0.5 1.97415 2.19425 0.289062 4.295 0.289062H11.7043ZM12.897 5.16401L12.957 5.10436C13.1362 4.88814 13.1362 4.57498 12.9487 4.35875C12.8445 4.24765 12.7012 4.1798 12.552 4.16489C12.3945 4.15669 12.2445 4.20963 12.1312 4.31401L8.74946 6.99822C8.31446 7.35686 7.69121 7.35686 7.24946 6.99822L3.87446 4.31401C3.64121 4.14252 3.31871 4.16489 3.12446 4.36621C2.92196 4.56752 2.89946 4.88814 3.07121 5.11182L3.16946 5.20875L6.58196 7.85568C7.00196 8.18375 7.51121 8.3627 8.04446 8.3627C8.57621 8.3627 9.09446 8.18375 9.51371 7.85568L12.897 5.16401Z" fill="white"></path>
  </symbol>
  <symbol fill="none" xmlns="http://www.w3.org/2000/svg" viewBox="0 0 18 18" id="phone2">
    <path
            d="M17.5102 13.2102L14.9983 10.6982C14.1012 9.80111 12.576 10.16 12.2172 11.3262C11.948 12.1337 11.0509 12.5822 10.2435 12.4028C8.44926 11.9542 6.02701 9.62168 5.57845 7.73772C5.30931 6.93027 5.84759 6.03314 6.655 5.76404C7.82127 5.40519 8.18012 3.88007 7.28299 2.98295L4.77104 0.470991C4.05334 -0.156997 2.97679 -0.156997 2.3488 0.470991L0.644257 2.17553C-1.06028 3.96978 0.823682 8.72455 5.04018 12.941C9.25667 17.1575 14.0114 19.1313 15.8057 17.337L17.5102 15.6324C18.1383 14.9147 18.1383 13.8382 17.5102 13.2102Z" fill="#ffffff"></path>
  </symbol>
  <symbol fill="none" xmlns="http://www.w3.org/2000/svg" viewBox="0 0 30 30" id="discount">
    <path fill-rule="evenodd" clip-rule="evenodd" d="M27.5988 10.7205L28.6792 11.8008C29.5345 12.641 29.9996 13.7813 29.9996 14.9815C30.0147 16.1818 29.5495 17.3236 28.7092 18.1773C28.6992 18.1883 28.6892 18.1979 28.6792 18.2076C28.6742 18.2124 28.6692 18.2173 28.6642 18.2223L27.5988 19.2875C27.1786 19.7076 26.9385 20.2778 26.9385 20.8794V22.4233C26.9385 24.9138 24.9128 26.9408 22.4219 26.9408H20.8763C20.2761 26.9408 19.7059 27.1793 19.2858 27.5994L18.2054 28.6797C17.3201 29.5664 16.1646 30 15.0092 30C13.8538 30 12.6984 29.5664 11.8131 28.6962L10.7177 27.5994C10.2975 27.1793 9.7273 26.9408 9.12708 26.9408H7.58152C5.09062 26.9408 3.06488 24.9138 3.06488 22.4233V20.8794C3.06488 20.2778 2.8248 19.7076 2.40465 19.2725L1.32425 18.2073C-0.431382 16.4534 -0.446388 13.5862 1.30925 11.8173L2.40465 10.7205C2.8248 10.3004 3.06488 9.73032 3.06488 9.11517V7.58482C3.06488 5.09424 5.09062 3.07028 7.58152 3.07028H9.12708C9.7273 3.07028 10.2975 2.82872 10.7177 2.40862L11.798 1.32837C13.5537 -0.440535 16.4197 -0.440534 18.1904 1.31487L19.2858 2.40862C19.7059 2.82872 20.2761 3.07028 20.8763 3.07028H22.4219C24.9128 3.07028 26.9385 5.09424 26.9385 7.58482V9.13168C26.9385 9.73032 27.1786 10.3004 27.5988 10.7205ZM10.4 9.6L8.18 10.368L8.396 11.088L10.28 10.524V18H11.12V9.6H10.4ZM15.8581 18.144C16.8661 18.144 17.6461 17.752 18.1981 16.968C18.7581 16.184 19.0381 15.128 19.0381 13.8C19.0381 12.472 18.7581 11.42 18.1981 10.644C17.6461 9.852 16.8661 9.456 15.8581 9.456C14.8581 9.456 14.0741 9.852 13.5061 10.644C12.9541 11.42 12.6781 12.472 12.6781 13.8C12.6781 15.12 12.9541 16.176 13.5061 16.968C14.0741 17.752 14.8581 18.144 15.8581 18.144ZM15.8581 17.328C15.1301 17.328 14.5541 17.02 14.1301 16.404C13.7221 15.788 13.5181 14.92 13.5181 13.8C13.5181 12.68 13.7221 11.812 14.1301 11.196C14.5541 10.58 15.1301 10.272 15.8581 10.272C16.5941 10.272 17.1661 10.58 17.5741 11.196C17.9901 11.804 18.1981 12.672 18.1981 13.8C18.1981 14.928 17.9901 15.796 17.5741 16.404C17.1661 17.02 16.5941 17.328 15.8581 17.328Z" fill="#E6214C"></path>
  </symbol>
  <symbol fill="none" xmlns="http://www.w3.org/2000/svg" viewBox="0 0 22 15" id="check">
    <path d="M1 4.33333L9.33333 12.6667L21 1" stroke="white" stroke-width="2"></path>
  </symbol>
  <symbol fill="none" xmlns="http://www.w3.org/2000/svg" viewBox="0 0 22 16" id="friends">
    <path fill-rule="evenodd" clip-rule="evenodd" d="M15.1583 4.23285C15.1583 6.58253 13.2851 8.4666 10.949 8.4666C8.61293 8.4666 6.73975 6.58253 6.73975 4.23285C6.73975 1.88227 8.61293 0 10.949 0C13.2851 0 15.1583 1.88227 15.1583 4.23285ZM10.9491 15.9994C7.51789 15.9994 4.58813 15.4555 4.58813 13.2796C4.58813 11.1028 7.49909 10.5391 10.9491 10.5391C14.3803 10.5391 17.31 11.083 17.31 13.2598C17.31 15.4357 14.3991 15.9994 10.9491 15.9994ZM16.957 4.31036C16.957 5.50817 16.5998 6.62402 15.973 7.55164C15.9085 7.64711 15.9658 7.77589 16.0795 7.79571C16.2362 7.82273 16.3983 7.83804 16.5631 7.84254C18.2061 7.88577 19.6808 6.82215 20.0883 5.22087C20.6918 2.84237 18.9198 0.707031 16.6633 0.707031C16.418 0.707031 16.1834 0.733149 15.9551 0.77998C15.9237 0.787185 15.8906 0.801595 15.8727 0.829514C15.8512 0.863737 15.8673 0.909668 15.8888 0.939388C16.5666 1.89493 16.957 3.06032 16.957 4.31036ZM19.6783 9.51248C20.7824 9.72953 21.5086 10.1726 21.8094 10.8166C22.0637 11.3452 22.0637 11.9585 21.8094 12.4863C21.3492 13.4851 19.8655 13.8057 19.2888 13.8885C19.1698 13.9065 19.074 13.803 19.0865 13.6832C19.3811 10.9156 17.0378 9.60344 16.4316 9.30174C16.4057 9.28823 16.4003 9.26752 16.403 9.25491C16.4048 9.2459 16.4155 9.23149 16.4352 9.22879C17.747 9.20447 19.1572 9.38459 19.6783 9.51248ZM5.43719 7.84254C5.60194 7.83804 5.76312 7.82363 5.92071 7.79571C6.03442 7.77589 6.09173 7.64711 6.02726 7.55164C5.40048 6.62402 5.04321 5.50817 5.04321 4.31036C5.04321 3.06032 5.43361 1.89493 6.11143 0.939388C6.13292 0.909668 6.14814 0.863737 6.12755 0.829514C6.10964 0.802496 6.07561 0.787185 6.04517 0.77998C5.81595 0.733149 5.58135 0.707031 5.33601 0.707031C3.07959 0.707031 1.30759 2.84237 1.91199 5.22087C2.3194 6.82215 3.79413 7.88577 5.43719 7.84254ZM5.59694 9.25401C5.59962 9.26752 5.59425 9.28733 5.56918 9.30174C4.9621 9.60344 2.61883 10.9156 2.91342 13.6823C2.92595 13.803 2.83104 13.9056 2.71195 13.8885C2.13531 13.8057 0.651629 13.4851 0.191392 12.4863C-0.0637974 11.9576 -0.0637974 11.3452 0.191392 10.8166C0.492248 10.1726 1.21752 9.72953 2.32156 9.51158C2.84358 9.38459 4.25294 9.20447 5.5656 9.22879C5.5853 9.23149 5.59515 9.2459 5.59694 9.25401Z" fill="#E6214C"></path>
  </symbol>
  <symbol fill="none" xmlns="http://www.w3.org/2000/svg" viewBox="0 0 17 30" id="arrow_l2">
    <path d="M15.6666 1.66602L2.33325 14.9993L15.6666 28.3327" stroke="black" stroke-width="2"></path>
  </symbol>
  <symbol fill="none" xmlns="http://www.w3.org/2000/svg" viewBox="0 0 17 30" id="arrow_r2">
    <path d="M1.33342 1.66602L14.6667 14.9993L1.33342 28.3327" stroke="black" stroke-width="2"></path>
  </symbol>
  <symbol fill="none" xmlns="http://www.w3.org/2000/svg" viewBox="0 0 17 30" id="arrow_l3">
    <path d="M15.6666 1.66602L2.33325 14.9993L15.6666 28.3327" stroke="#E6214C" stroke-width="2"></path>
  </symbol>
  <symbol fill="none" xmlns="http://www.w3.org/2000/svg" viewBox="0 0 17 30" id="arrow_r3">
    <path d="M1.33342 1.66602L14.6667 14.9993L1.33342 28.3327" stroke="#E6214C" stroke-width="2"></path>
  </symbol>
  <symbol fill="none" xmlns="http://www.w3.org/2000/svg" viewBox="0 0 13 22" id="arrow_l">
    <path d="M12 1L2 11L12 21" stroke="white" stroke-width="2"></path>
  </symbol>
  <symbol fill="none" xmlns="http://www.w3.org/2000/svg" viewBox="0 0 11 18" id="arrow_r">
    <path d="M1 1L9 9L1 17" stroke="white" stroke-width="2"></path>
  </symbol>
  <symbol fill="none" xmlns="http://www.w3.org/2000/svg" viewBox="0 0 18 18" id="whatsap_2">
    <path d="M9.00225 0H8.99775C4.03538 0 0 4.0365 0 9C0 10.9688 0.6345 12.7935 1.71337 14.2751L0.59175 17.6186L4.05113 16.5128C5.47425 17.4555 7.17188 18 9.00225 18C13.9646 18 18 13.9624 18 9C18 4.03763 13.9646 0 9.00225 0ZM14.2391 12.7091C14.022 13.3223 13.1602 13.8307 12.4729 13.9792C12.0026 14.0794 11.3884 14.1593 9.32063 13.302C6.67575 12.2063 4.9725 9.51862 4.83975 9.34425C4.71263 9.16988 3.771 7.92112 3.771 6.62963C3.771 5.33813 4.42688 4.70925 4.69125 4.43925C4.90838 4.21763 5.26725 4.11637 5.6115 4.11637C5.72288 4.11637 5.823 4.122 5.913 4.1265C6.17737 4.13775 6.31012 4.1535 6.4845 4.57088C6.70162 5.094 7.23037 6.3855 7.29338 6.51825C7.3575 6.651 7.42163 6.831 7.33162 7.00538C7.24725 7.18538 7.173 7.26525 7.04025 7.41825C6.9075 7.57125 6.7815 7.68825 6.64875 7.8525C6.52725 7.99538 6.39 8.14838 6.543 8.41275C6.696 8.6715 7.22475 9.53437 8.00325 10.2274C9.00787 11.1217 9.82237 11.4075 10.1137 11.529C10.3309 11.619 10.5896 11.5976 10.7483 11.4289C10.9496 11.2118 11.1982 10.8518 11.4514 10.4974C11.6314 10.2431 11.8586 10.2116 12.0971 10.3016C12.3401 10.386 13.626 11.0216 13.8904 11.1532C14.1547 11.286 14.3291 11.349 14.3932 11.4604C14.4562 11.5718 14.4562 12.0949 14.2391 12.7091Z" fill="white"></path>
  </symbol>
  <symbol fill="none" xmlns="http://www.w3.org/2000/svg" viewBox="0 0 28 26" id="logo_lab">
    <path fill="white"
            d="M26.9001 19.1986C26.2194 18.5179 25.2775 18.0958 24.2376 18.0958C24.0108 18.0958 23.7894 18.117 23.5748 18.158C23.1377 18.2391 22.7273 18.3967 22.3514 18.6078C18.2744 20.9 15.2348 21.1589 14.0192 21.1589C14.0059 21.1589 13.9937 21.1589 13.9814 21.1589C13.0799 21.1589 11.1734 21.0121 8.58951 20.0057C8.5362 20.5866 8.49686 21.1945 8.48977 21.8557C8.48142 22.6132 8.30696 23.3161 7.98777 23.9573C10.8734 22.7315 13.0123 22.548 13.9814 22.548C13.9937 22.548 14.0059 22.548 14.0192 22.548C15.2348 22.548 18.2744 22.8081 22.3514 25.1002C22.7273 25.3112 23.1377 25.4689 23.5748 25.55C23.7894 25.5899 24.0108 25.6111 24.2376 25.6111C25.2775 25.6111 26.2194 25.1902 26.9001 24.5093C27.5796 23.8286 27.9999 22.8902 27.9999 21.8529C27.9999 20.8167 27.5796 19.8783 26.9001 19.1986Z"></path>
    <path fill="white"
            d="M11.6343 8.23339C11.2835 8.02627 10.9637 7.78306 10.6851 7.51097C10.4476 7.28066 10.2455 7.02141 10.0641 6.74932C9.68434 9.85768 8.77329 11.7985 8.28958 12.6363C8.28284 12.6474 8.27728 12.6574 8.27067 12.6696C7.85362 13.3914 6.89941 14.7963 5.0388 16.3756C4.19024 17.0963 3.15254 17.8537 1.89138 18.5989C1.6034 18.77 1.33197 18.9744 1.08841 19.2163C0.867099 19.4374 0.669208 19.6896 0.505654 19.9739C0.0886024 20.6935 -0.0625789 21.4931 0.0230557 22.2594C0.147615 23.4088 0.801553 24.485 1.88137 25.108C2.17393 25.2769 2.47866 25.4012 2.79006 25.4845C3.90108 25.7821 5.08433 25.5489 5.99746 24.8791C6.40228 24.5804 6.75372 24.1951 7.02167 23.7321C7.36644 23.1355 7.51435 22.4859 7.52109 21.8451C7.57107 17.1729 8.86671 14.4143 9.47512 13.3638C9.48179 13.3526 9.48728 13.3415 9.49396 13.3314C9.94326 12.553 11.0154 10.9826 13.173 9.25574C13.1776 9.252 13.1836 9.24811 13.1883 9.24436C12.7113 8.90786 12.204 8.56997 11.6343 8.23339Z"></path>
    <path fill="white"
            d="M11.3613 6.81908C11.5937 7.04564 11.8529 7.23888 12.1275 7.40102C16.1535 9.77987 17.8985 12.2787 18.5068 13.3314C18.5134 13.3415 18.519 13.3526 18.5246 13.3638C18.9755 14.1424 19.8013 15.8651 20.2204 18.6041C20.7514 18.3597 21.299 18.0897 21.8766 17.7649C22.3631 17.4917 22.8747 17.304 23.398 17.2074C23.5781 17.1729 23.7689 17.1667 23.9576 17.1548C21.4453 15.2696 20.2143 13.5075 19.729 12.6696C19.7234 12.6574 19.7168 12.6474 19.7112 12.6363C19.1028 11.5845 17.8072 8.82699 17.7583 4.15593C17.7549 3.83719 17.716 3.51742 17.6371 3.20306C17.5558 2.88314 17.4324 2.56781 17.2579 2.26795C16.7384 1.3695 15.9032 0.766459 14.9735 0.51776C14.0838 0.278918 13.1051 0.365542 12.2343 0.82754C11.3179 1.31501 10.634 2.1714 10.3648 3.17307C10.1157 4.10151 10.2214 5.12546 10.7407 6.02613C10.9142 6.32599 11.1244 6.58919 11.3613 6.81908Z"></path>
  </symbol>
  <symbol fill="none" xmlns="http://www.w3.org/2000/svg" viewBox="0 0 27 27" id="cross">
    <path d="M26 1L1 26M1 1L26 26" stroke="black" stroke-width="2"></path>
  </symbol>
  <symbol fill="none" xmlns="http://www.w3.org/2000/svg" viewBox="0 0 24 20" id="telegram">
    <path d="M1.64987 8.56244C8.09231 5.75558 12.3883 3.90512 14.5378 3.01107C20.675 0.45837 21.9503 0.0149404 22.7815 0.000141954C22.9643 -0.00292234 23.3731 0.0423843 23.6379 0.257234C23.8614 0.438648 23.9229 0.683713 23.9524 0.855714C23.9818 1.02771 24.0185 1.41954 23.9893 1.7257C23.6567 5.22014 22.2177 13.7002 21.4856 17.6141C21.1758 19.2702 20.5658 19.8254 19.9753 19.8798C18.6919 19.9979 17.7174 19.0317 16.4744 18.2169C14.5294 16.9419 13.4305 16.1482 11.5425 14.904C9.36064 13.4662 10.7751 12.6759 12.0185 11.3844C12.344 11.0464 17.9985 5.90319 18.1079 5.43662C18.1216 5.37827 18.1343 5.16076 18.0051 5.04591C17.8759 4.93105 17.6851 4.97033 17.5475 5.00156C17.3524 5.04584 14.2452 7.0996 8.22584 11.1628C7.34386 11.7685 6.54499 12.0636 5.82924 12.0481C5.04017 12.0311 3.52233 11.6019 2.39397 11.2352C1.00999 10.7853 -0.0899675 10.5474 0.00581422 9.7834C0.0557033 9.38545 0.603724 8.97846 1.64987 8.56244Z" fill="white"></path>
  </symbol>
  <symbol fill="none" xmlns="http://www.w3.org/2000/svg" viewBox="0 0 18 13" id="youtube">
    <path d="M17.1699 2.06364C16.9754 1.3407 16.4054 0.77082 15.6826 0.576157C14.3621 0.214844 9.07987 0.214844 9.07987 0.214844C9.07987 0.214844 3.79789 0.214844 2.47736 0.562458C1.76844 0.756916 1.18455 1.3408 0.990089 2.06364C0.642578 3.38406 0.642578 6.12243 0.642578 6.12243C0.642578 6.12243 0.642578 8.87461 0.990089 10.1812C1.18475 10.9041 1.75453 11.4739 2.47747 11.6686C3.81179 12.03 9.08008 12.03 9.08008 12.03C9.08008 12.03 14.3621 12.03 15.6826 11.6824C16.4055 11.4878 16.9754 10.918 17.1701 10.1951C17.5175 8.87461 17.5175 6.13634 17.5175 6.13634C17.5175 6.13634 17.5314 3.38406 17.1699 2.06364ZM7.39814 8.65224V3.59262L11.7905 6.12243L7.39814 8.65224Z" fill="white"></path>
  </symbol>
  <symbol fill="none" xmlns="http://www.w3.org/2000/svg" viewBox="0 0 12 14" id="location">
    <path fill-rule="evenodd" clip-rule="evenodd" d="M0 5.82243C0 2.60252 2.69072 0 5.94541 0C9.20928 0 11.9 2.60252 11.9 5.82243C11.9 7.44498 11.3099 8.95134 10.3387 10.2281C9.26716 11.6365 7.94651 12.8635 6.45998 13.8267C6.11976 14.0493 5.81271 14.0661 5.43931 13.8267C3.94431 12.8635 2.62366 11.6365 1.56135 10.2281C0.589388 8.95134 0 7.44498 0 5.82243ZM3.98633 6.00291C3.98633 7.08158 4.86653 7.92996 5.94578 7.92996C7.02574 7.92996 7.91441 7.08158 7.91441 6.00291C7.91441 4.93264 7.02574 4.04297 5.94578 4.04297C4.86653 4.04297 3.98633 4.93264 3.98633 6.00291Z" fill="#E6214C"></path>
  </symbol>
  <symbol fill="none" xmlns="http://www.w3.org/2000/svg" viewBox="0 0 24 24" id="whatsap">
    <path fill-rule="evenodd" clip-rule="evenodd" d="M20.4 3.45C18.15 1.2 15.15 0 12 0C5.4 0 0 5.4 0 12C0 14.1 0.600009 16.2 1.65001 18L0 24L6.30002 22.35C8.10002 23.25 10.05 23.85 12 23.85C18.6 23.85 24 18.45 24 11.85C24 8.7 22.65 5.7 20.4 3.45ZM12 21.9C10.2 21.9 8.40001 21.45 6.90001 20.55L6.59999 20.4L2.84999 21.45L3.90001 17.85L3.59999 17.4C2.54999 15.75 2.09999 13.95 2.09999 12.15C2.09999 6.75 6.6 2.25 12 2.25C14.7 2.25 17.1 3.3 19.05 5.1C21 7.05 21.9 9.45 21.9 12.15C21.9 17.4 17.55 21.9 12 21.9ZM17.4 14.4C17.1 14.25 15.6 13.5 15.3 13.5C15 13.35 14.85 13.35 14.7 13.65C14.55 13.95 13.95 14.55 13.8 14.85C13.65 15 13.5 15 13.2 15C12.9 14.85 12 14.55 10.8 13.5C9.90002 12.75 9.30001 11.7 9.15001 11.4C9.00001 11.1 9.15002 10.95 9.30002 10.8C9.45002 10.65 9.6 10.5 9.75 10.35C9.9 10.2 9.90002 10.05 10.05 9.9C10.2 9.75 10.05 9.6 10.05 9.45C10.05 9.3 9.45001 7.8 9.15001 7.2C9.00001 6.75 8.70002 6.75 8.55002 6.75C8.40002 6.75 8.24998 6.75 7.94998 6.75C7.79998 6.75 7.49998 6.75 7.19998 7.05C6.89998 7.35 6.15001 8.1 6.15001 9.6C6.15001 11.1 7.19999 12.45 7.34999 12.75C7.49999 12.9 9.44998 16.05 12.45 17.25C15 18.3 15.45 18 16.05 18C16.65 18 17.85 17.25 18 16.65C18.3 15.9 18.3 15.3 18.15 15.3C18 14.55 17.7 14.55 17.4 14.4Z" fill="white"></path>
  </symbol>
  <symbol fill="none" xmlns="http://www.w3.org/2000/svg" viewBox="0 0 24 24" id="phone">
    <path d="M2.67963 2.65371L3.62623 1.70711C4.01675 1.31658 4.64992 1.31658 5.04044 1.70711L8.95956 5.62623C9.35008 6.01675 9.35008 6.64992 8.95956 7.04044L7.36233 8.63767C7.14595 8.85405 7.09231 9.18461 7.22916 9.45831C8.81137 12.6227 11.3773 15.1886 14.5417 16.7708C14.8154 16.9077 15.146 16.8541 15.3623 16.6377L16.9596 15.0404C17.3501 14.6499 17.9832 14.6499 18.3738 15.0404L22.2929 18.9596C22.6834 19.3501 22.6834 19.9832 22.2929 20.3738L21.3463 21.3204C19.2349 23.4317 15.8924 23.6693 13.5037 21.8777L9.62857 18.9714C7.88504 17.6638 6.33622 16.115 5.02857 14.3714L2.12226 10.4964C0.330722 8.10763 0.568274 4.76506 2.67963 2.65371Z" stroke="white" stroke-width="1.7"></path>
  </symbol>
</svg>
